<?xml version="1.0" standalone="no"?>
<!DOCTYPE svg PUBLIC "-//W3C//DTD SVG 20010904//EN"
 "http://www.w3.org/TR/2001/REC-SVG-20010904/DTD/svg10.dtd">
<svg version="1.0" xmlns="http://www.w3.org/2000/svg"
 width="840.000000pt" height="600.000000pt" viewBox="0 0 840.000000 600.000000"
 preserveAspectRatio="xMidYMid meet">

<g transform="translate(0.000000,600.000000) scale(0.100000,-0.100000)"
fill="#000000" stroke="none">
<path d="M320 5991 c0 -6 5 -22 12 -38 6 -15 12 -32 12 -36 1 -4 6 -11 12 -15
5 -4 16 -22 24 -41 7 -18 23 -45 34 -60 12 -14 26 -35 32 -46 6 -11 17 -20 25
-20 8 0 16 -11 19 -25 3 -14 12 -25 20 -25 8 0 16 -9 18 -20 2 -16 1 -17 -7
-5 -15 22 -24 5 -11 -20 10 -18 14 -20 21 -9 4 7 11 10 15 6 4 -3 2 -12 -4
-19 -7 -9 -6 -19 4 -32 8 -11 14 -16 15 -10 0 5 8 -11 18 -36 13 -32 25 -46
41 -48 16 -3 21 -9 17 -24 -4 -12 6 -38 24 -67 l30 -46 -6 35 -6 35 19 -30
c12 -19 16 -34 10 -41 -10 -14 10 -64 26 -64 7 0 12 -9 13 -19 2 -27 36 -77
41 -61 2 6 -1 17 -7 23 -6 6 -11 16 -11 21 0 21 28 -30 33 -59 6 -38 46 -111
74 -139 13 -11 23 -30 24 -41 1 -17 13 30 23 90 22 136 38 215 45 215 14 -1
39 -27 43 -45 2 -11 9 -19 15 -18 6 1 9 -6 5 -19 -3 -14 -1 -19 6 -14 7 4 15
0 18 -11 8 -27 42 -93 70 -138 13 -22 27 -45 30 -52 3 -6 13 -9 21 -6 12 5 14
1 8 -16 -4 -14 -3 -21 5 -19 7 2 18 -15 24 -38 15 -47 67 -144 79 -144 4 0 7
-6 7 -12 1 -7 16 -38 35 -68 18 -30 51 -88 71 -128 21 -40 47 -80 57 -90 19
-17 20 -16 14 13 l-6 30 13 -30 c8 -16 12 -35 9 -42 -3 -7 0 -13 6 -13 6 0 11
-14 11 -31 0 -17 4 -28 10 -24 6 3 7 -1 4 -9 -3 -9 -1 -16 5 -16 6 0 11 -7 11
-15 0 -8 7 -15 16 -15 8 0 13 -4 9 -9 -6 -11 15 -61 27 -61 4 0 8 -4 8 -9 0
-13 80 -152 96 -169 8 -7 11 -19 7 -25 -4 -7 0 -8 11 -4 11 4 15 3 10 -4 -3
-6 0 -22 7 -36 12 -22 14 -23 21 -6 7 14 7 12 4 -6 -3 -16 3 -34 20 -53 13
-16 24 -36 24 -43 0 -10 6 -12 18 -8 14 6 15 4 5 -8 -9 -11 -8 -18 1 -31 7
-10 16 -15 20 -11 4 4 9 -3 13 -15 3 -12 8 -20 12 -18 4 3 13 -5 21 -17 12
-20 12 -21 -3 -8 -21 17 -22 3 -1 -39 13 -25 19 -29 26 -19 7 10 8 6 4 -13 -3
-14 -2 -28 2 -30 5 -2 20 -25 34 -53 14 -27 31 -49 37 -47 7 1 10 -2 6 -8 -3
-5 2 -23 11 -40 30 -50 4 -48 -43 5 -25 28 -42 44 -38 38 15 -29 -4 -10 -30
30 -15 23 -49 63 -76 89 -27 26 -49 51 -49 56 0 5 -9 17 -20 27 -11 10 -20 13
-20 7 0 -7 -5 -12 -11 -12 -6 0 -8 7 -5 16 9 24 -141 193 -172 194 -8 0 -12 5
-10 12 3 7 -7 24 -21 38 -14 14 -44 47 -66 73 -37 43 -66 64 -49 35 4 -7 -2
-4 -14 6 -26 23 -30 44 -4 25 13 -10 12 -8 -3 10 -39 48 -56 62 -66 55 -14 -8
-29 14 -29 45 0 17 -4 21 -15 17 -8 -3 -23 -9 -32 -12 -17 -5 -17 -5 0 6 25
16 21 33 -5 25 -18 -6 -21 -5 -11 5 16 17 -12 61 -33 53 -9 -3 -12 0 -9 8 3 8
-10 31 -28 52 -24 28 -37 36 -51 31 -15 -6 -17 -3 -11 14 4 13 2 22 -4 22 -6
0 -11 7 -11 15 0 15 -11 19 -38 16 -7 -1 -12 4 -10 11 4 16 -40 74 -49 65 -3
-4 0 -13 7 -22 11 -13 10 -14 -3 -9 -11 4 -18 -1 -21 -18 -2 -12 -12 -56 -21
-95 -9 -40 -13 -77 -10 -83 3 -5 -1 -10 -9 -10 -8 0 -34 19 -57 43 -24 23 -50
41 -58 39 -14 -2 -14 -1 -1 7 12 8 11 13 -5 31 l-20 22 -16 -21 c-24 -29 -33
-26 -13 4 16 25 16 26 -19 61 -22 22 -40 33 -48 28 -9 -5 -11 -1 -7 14 6 21
-13 47 -25 35 -4 -3 -7 0 -7 8 0 8 -23 39 -52 69 -28 30 -51 58 -50 63 1 4 -7
7 -19 7 -14 0 -19 5 -16 14 8 20 -40 66 -61 60 -11 -4 -13 -3 -5 3 16 11 -11
48 -28 37 -8 -5 -11 -1 -8 12 3 13 -17 41 -64 89 -50 51 -67 63 -62 45 7 -23
7 -23 -9 -7 -10 9 -15 25 -12 34 4 12 -12 36 -49 76 -56 58 -72 69 -62 43 4
-10 1 -13 -8 -10 -7 3 -16 12 -19 19 -3 9 0 12 10 8 22 -8 17 6 -17 42 -19 20
-38 31 -48 28 -10 -2 -24 4 -31 14 -12 15 -12 16 0 6 8 -7 18 -13 22 -13 15 0
8 17 -22 50 l-30 34 1 -309 c0 -222 4 -314 12 -324 9 -11 9 -15 0 -18 -9 -3
-13 -31 -13 -93 0 -76 2 -89 18 -93 15 -4 15 -5 0 -6 -15 -1 -17 -26 -18 -285
l0 -285 70 -56 c39 -31 75 -53 80 -50 6 4 10 3 9 -2 -4 -21 3 -32 24 -38 12
-4 30 -17 40 -29 11 -12 17 -15 14 -6 -2 8 2 20 9 27 20 20 24 15 14 -13 -11
-29 -3 -54 11 -33 7 11 9 10 9 -3 0 -10 4 -18 9 -18 12 0 17 27 12 69 -2 24
-6 30 -13 20 -6 -9 -7 -3 -3 19 5 26 3 37 -12 48 -10 9 -12 12 -4 8 11 -5 12
-1 7 22 -4 16 -11 31 -14 34 -4 3 -8 21 -8 40 -1 19 -5 64 -9 100 l-8 65 31
-35 c18 -19 32 -39 32 -43 0 -5 4 -6 9 -3 5 4 15 -7 23 -24 13 -30 22 -37 31
-22 2 4 2 1 0 -6 -5 -21 37 -74 53 -68 8 3 14 0 14 -7 0 -26 25 -67 38 -62 7
3 10 1 7 -5 -8 -13 58 -100 73 -95 7 3 11 -1 10 -8 -3 -14 61 -106 75 -107 4
0 7 7 7 15 0 8 5 15 10 15 13 0 13 -6 -2 -30 -11 -17 -10 -22 1 -29 8 -5 21
-7 29 -4 11 5 13 1 8 -15 -6 -18 -4 -21 10 -15 13 5 15 2 10 -14 -4 -13 1 -26
15 -39 12 -10 27 -31 35 -46 8 -16 19 -28 25 -28 6 0 7 5 4 10 -3 6 -1 10 4
10 6 0 10 -10 8 -21 -1 -12 3 -24 10 -26 7 -3 9 3 6 18 -5 16 -3 20 6 14 7 -4
10 -17 7 -29 -6 -26 47 -106 70 -106 8 0 14 -6 12 -12 -3 -19 55 -98 69 -93 7
2 10 -1 7 -8 -5 -15 40 -69 51 -59 5 4 5 2 2 -4 -4 -6 4 -23 17 -37 27 -29 40
-57 26 -57 -11 0 -52 21 -60 31 -23 27 -97 68 -114 64 -12 -3 -15 -2 -9 1 8 3
-5 19 -33 40 -25 19 -49 32 -54 29 -6 -4 -10 1 -10 10 0 11 -6 15 -19 10 -10
-3 -23 1 -30 9 -10 12 -8 14 11 9 22 -5 23 -5 3 10 -11 8 -30 17 -42 21 -13 4
-23 12 -23 17 0 6 -5 7 -10 4 -6 -4 -9 -1 -8 5 2 7 -6 17 -17 23 -11 7 -22 14
-25 17 -18 19 -62 40 -72 34 -7 -4 -8 -3 -4 5 8 12 -30 50 -51 51 -7 0 -13 5
-13 10 0 6 -7 10 -15 10 -15 0 -14 -11 10 -65 21 -49 39 -89 42 -97 2 -4 -10
-14 -27 -23 -29 -15 -30 -15 -30 5 0 24 -20 27 -20 3 -1 -17 -1 -17 -14 0 -7
9 -18 17 -24 17 -6 0 -14 5 -18 11 -4 8 1 9 17 4 13 -3 4 5 -20 19 -23 14 -47
26 -51 26 -5 0 -15 6 -22 13 -7 6 -36 23 -63 36 -28 14 -57 30 -65 37 -8 6
-26 14 -40 18 -14 3 -19 3 -13 0 19 -9 16 -24 -5 -24 -25 0 -34 11 -21 26 5 7
6 14 2 17 -51 31 -87 47 -103 47 -20 0 -20 -10 -20 -598 0 -452 3 -601 12
-610 9 -9 9 -12 0 -12 -17 0 -17 -1467 1 -1488 9 -12 9 -16 -1 -19 -9 -4 -12
-98 -12 -434 l1 -429 212 3 c126 1 215 6 220 12 6 6 10 6 14 -2 7 -19 23 -16
23 5 0 14 2 15 9 3 8 -12 38 -15 145 -16 134 -1 137 0 159 25 41 45 77 98 77
114 0 18 17 30 22 16 3 -8 137 150 147 174 2 4 11 16 20 25 48 51 71 83 66 92
-8 12 13 39 29 39 6 0 3 -5 -7 -11 -9 -5 -17 -15 -17 -22 0 -6 10 -2 22 10 20
21 20 23 4 47 -9 14 -12 26 -6 26 6 0 13 -7 16 -15 4 -8 11 -15 16 -15 6 0 7
7 4 16 -4 12 -2 15 9 10 18 -6 37 26 29 48 -3 9 -1 16 5 16 6 0 11 -5 11 -11
0 -5 5 -7 11 -3 8 4 7 9 -2 14 -10 7 -10 11 0 24 8 9 19 16 25 16 6 0 4 -4 -4
-10 -8 -5 -12 -11 -9 -14 3 -3 18 8 34 24 16 17 23 30 17 30 -7 0 -12 -5 -12
-12 0 -6 -2 -9 -5 -6 -10 10 8 39 21 34 17 -6 38 20 28 35 -5 9 -2 10 9 6 12
-5 19 1 23 18 3 14 11 25 18 25 6 0 27 22 46 48 19 26 39 50 45 54 6 5 2 8 -7
8 -10 0 -18 7 -18 15 0 8 7 15 15 15 8 0 15 -6 15 -12 0 -7 11 0 25 16 13 16
22 33 18 39 -3 5 -2 7 4 4 5 -4 20 6 33 21 13 15 29 34 37 43 13 15 10 16 -29
14 -24 -1 -50 -4 -58 -7 -8 -3 -64 -11 -125 -17 -92 -9 -328 -39 -440 -56 -35
-6 -64 -9 -290 -36 -93 -11 -172 -23 -175 -27 -3 -4 -27 -7 -55 -7 -27 -1 -72
-3 -100 -5 -28 -3 -49 0 -49 5 1 10 85 62 116 72 9 3 14 11 11 19 -3 9 0 12 9
9 17 -7 118 41 118 56 0 6 6 9 14 6 19 -8 42 19 24 27 -7 3 -2 3 11 0 16 -4
21 -3 17 5 -5 7 2 11 18 11 14 0 28 4 31 10 4 6 -1 7 -12 4 -14 -4 -15 -4 -4
4 7 5 21 8 30 5 10 -2 23 3 30 11 8 9 20 16 28 16 8 0 11 5 7 12 -4 7 -3 8 4
4 6 -4 21 -2 33 5 18 9 19 13 8 21 -11 8 -10 9 3 4 21 -6 77 20 101 48 10 11
16 15 12 8 -6 -12 32 6 127 60 21 12 34 26 31 31 -3 6 -1 7 5 3 10 -6 162 69
162 80 0 3 -5 2 -10 -1 -5 -3 -10 -1 -10 5 0 6 8 10 18 9 24 -3 72 11 72 22 0
5 8 9 18 9 14 0 15 2 2 10 -12 8 -10 10 8 10 13 0 33 5 44 11 17 9 18 13 7 21
-10 7 -7 7 9 3 31 -9 78 21 63 39 -6 7 -8 16 -4 19 3 4 -3 7 -15 7 -12 0 -22
-4 -22 -10 0 -5 5 -10 11 -10 5 0 7 -5 4 -11 -10 -15 -45 19 -38 37 3 9 -1 14
-13 14 -10 0 -43 9 -73 19 -31 10 -87 27 -126 36 -38 9 -77 20 -85 23 -8 3
-19 7 -25 7 -5 1 -21 7 -35 12 -14 6 -41 14 -60 18 -19 4 -66 17 -105 30 -137
44 -208 60 -213 47 -6 -19 -30 -14 -28 5 1 13 -12 21 -44 30 -25 7 -79 22
-120 34 -41 12 -87 22 -102 23 -14 1 -24 4 -22 7 6 10 -45 21 -58 13 -6 -4 -8
-3 -5 3 4 6 -4 14 -18 17 -31 8 -32 23 -2 28 12 2 21 9 20 16 -2 6 4 12 13 12
8 0 12 -4 9 -10 -3 -5 3 -10 15 -10 11 0 23 7 26 15 4 8 13 15 22 15 13 0 12
-3 -4 -15 -18 -15 -17 -15 16 -10 19 3 91 12 159 20 74 9 128 20 133 27 6 10
8 10 8 -1 0 -14 -1 -14 145 5 27 4 61 14 75 23 14 9 21 11 17 4 -6 -9 -1 -13
15 -13 36 0 68 11 62 21 -3 5 1 9 10 9 8 0 16 -5 18 -10 3 -10 131 3 478 47
30 3 62 5 70 4 8 -2 2 7 -15 20 -16 13 -32 26 -35 29 -3 3 -23 20 -45 37 -22
17 -67 56 -100 87 -38 36 -66 55 -78 52 -10 -2 -14 0 -11 6 4 6 2 13 -4 17
-11 7 -96 80 -172 149 -26 23 -52 42 -59 42 -6 0 -11 5 -11 11 0 6 -7 9 -14 6
-9 -4 -13 -1 -10 6 2 7 -8 21 -23 32 -15 11 -41 32 -58 46 -16 14 -36 24 -42
22 -7 -3 -16 4 -19 14 -13 35 -47 63 -68 57 -14 -3 -17 -2 -8 4 13 9 -11 35
-78 82 -19 14 -43 35 -53 48 -13 15 -25 21 -38 17 -14 -5 -17 -2 -13 8 3 9 -7
24 -26 39 -28 22 -29 26 -16 37 11 9 16 10 16 2 0 -6 13 -11 28 -11 16 0 42
-6 58 -14 45 -21 74 -28 74 -18 0 6 -6 13 -12 15 -10 4 -10 6 -1 6 7 1 17 -8
23 -19 6 -11 25 -22 48 -25 20 -3 44 -10 52 -14 8 -4 42 -16 75 -26 104 -31
248 -75 312 -96 33 -11 65 -19 70 -17 4 1 25 -6 47 -15 21 -9 42 -17 47 -17
10 0 166 -48 198 -61 20 -8 22 -7 17 8 -6 14 -2 13 17 -5 13 -13 28 -22 33
-21 5 2 25 -4 44 -13 19 -8 48 -18 64 -22 27 -7 28 -6 15 10 -12 16 -12 17 4
11 9 -3 17 -4 17 -1 0 10 -23 49 -33 56 -6 3 -11 17 -13 30 -1 12 -3 25 -3 28
-1 3 -6 -2 -11 -10 -8 -11 -9 -8 -4 13 4 17 2 27 -5 27 -6 0 -11 6 -11 14 0 7
-11 30 -25 50 -14 20 -25 42 -25 48 0 6 -10 30 -22 55 -16 31 -24 40 -31 31
-6 -9 -7 -7 -3 5 3 10 -1 28 -9 41 -8 12 -12 26 -8 31 5 4 0 5 -9 2 -12 -4
-15 -2 -12 8 3 7 -6 35 -20 62 -14 26 -25 40 -26 30 0 -11 -5 -15 -11 -11 -6
3 -9 15 -6 25 3 10 -1 23 -9 30 -8 6 -11 15 -8 21 3 5 -4 29 -15 53 -12 25
-31 66 -43 93 -25 53 -63 117 -54 89 3 -11 2 -16 -5 -12 -5 4 -7 15 -4 25 3
10 -2 25 -12 36 -10 9 -18 22 -18 28 0 6 -14 41 -31 77 -21 44 -39 68 -53 72
-11 3 -21 11 -21 19 0 10 2 10 10 -2 5 -8 12 -12 15 -8 4 4 -7 32 -24 63 -17
31 -31 60 -31 65 0 13 41 -1 47 -16 7 -19 23 -18 23 1 0 8 -4 15 -10 15 -5 0
-10 5 -10 11 0 22 27 -11 33 -40 4 -16 21 -39 44 -56 21 -16 71 -58 112 -95
40 -36 76 -64 80 -63 4 1 15 -10 25 -25 10 -15 42 -45 71 -67 30 -22 54 -43
55 -47 0 -4 7 -4 17 -1 10 4 14 2 10 -4 -7 -12 11 -32 83 -93 30 -25 61 -52
70 -60 58 -56 131 -111 139 -105 6 3 9 0 6 -7 -2 -7 17 -30 43 -51 27 -20 66
-54 88 -75 68 -63 93 -82 99 -72 3 5 -3 13 -12 19 -14 8 -15 12 -5 19 11 7 11
39 3 164 -6 86 -15 168 -21 182 -7 20 -7 25 1 20 8 -5 10 3 6 27 -3 19 -8 68
-11 109 -2 41 -7 98 -11 125 -3 28 -6 64 -6 80 0 48 -8 75 -23 75 -8 0 -15 14
-18 36 -3 29 0 38 13 41 13 4 16 14 13 51 -1 26 -5 94 -8 152 -3 58 -8 140
-11 183 -6 95 6 98 50 11 17 -32 45 -73 63 -91 30 -29 45 -62 22 -48 -17 11
-11 -19 16 -73 25 -50 40 -70 27 -35 -4 10 -2 14 4 10 6 -4 14 -24 17 -44 4
-21 19 -63 33 -94 21 -47 29 -56 47 -52 18 4 19 3 4 -6 -15 -10 -13 -17 16
-79 18 -37 36 -77 40 -89 4 -13 11 -23 16 -23 5 0 2 12 -6 28 -7 15 -14 35
-14 45 0 9 -4 17 -10 17 -5 0 -10 8 -10 17 0 11 3 13 9 8 16 -17 43 -99 42
-129 -1 -26 0 -28 15 -15 16 13 17 11 11 -13 -9 -33 12 -85 26 -66 6 9 7 6 4
-9 -3 -14 2 -28 14 -39 11 -10 17 -24 14 -33 -3 -8 -3 -12 1 -9 3 4 13 1 20
-7 19 -18 18 -31 -1 -15 -18 15 -19 9 -4 -24 7 -14 15 -23 20 -21 4 3 11 0 15
-6 4 -8 3 -9 -4 -5 -17 10 -15 -10 3 -28 8 -8 16 -23 18 -33 6 -26 18 -54 40
-88 11 -17 16 -21 13 -10 -6 20 -6 20 9 1 8 -11 15 -31 16 -45 l0 -26 11 25
c6 14 14 34 19 45 5 11 17 45 25 75 8 30 18 64 21 74 5 14 3 17 -7 11 -9 -5
-11 -4 -6 4 4 6 12 8 18 5 7 -5 9 0 6 14 -3 12 -3 22 1 24 15 7 41 108 32 125
-19 36 -40 99 -46 136 -3 21 -10 35 -15 32 -4 -3 -6 -14 -3 -25 8 -31 -11 -23
-24 10 -10 26 -9 30 8 35 22 7 25 30 5 42 -7 4 -17 24 -20 43 l-7 35 25 -40
c32 -52 60 -111 75 -157 7 -20 19 -42 27 -48 7 -7 14 -20 14 -29 0 -22 97
-119 155 -155 87 -54 240 -290 355 -549 21 -47 21 -51 6 -144 -9 -53 -20 -101
-25 -106 -19 -19 -132 76 -196 164 -37 49 -110 191 -140 273 -11 27 -21 44
-23 38 -8 -25 52 -214 98 -309 28 -56 50 -105 50 -107 0 -3 -6 -3 -14 0 -7 3
-38 -19 -70 -48 l-56 -54 0 -72 0 -72 43 6 c23 3 58 10 77 15 19 5 44 9 55 9
17 -1 16 -3 -7 -16 -29 -15 -38 -27 -14 -18 8 3 17 1 20 -5 7 -11 -20 -41 -39
-41 -7 0 -16 -8 -20 -18 -8 -21 -5 -28 12 -24 7 2 13 -2 13 -8 0 -5 -11 -10
-25 -10 -14 0 -25 -4 -25 -10 0 -5 14 -10 31 -10 34 0 31 -20 -4 -21 -22 0
-22 0 -1 -9 14 -5 20 -16 19 -32 -1 -12 2 -31 7 -41 8 -15 5 -20 -11 -24 -21
-5 -29 -23 -11 -23 6 0 10 -10 10 -22 0 -20 -1 -20 -19 -4 -17 16 -19 16 -24
-5 -4 -15 -11 -20 -23 -15 -12 5 -15 2 -10 -10 5 -12 1 -14 -17 -8 -12 3 -26
13 -30 20 -16 27 -27 13 -27 -33 0 -27 0 -59 0 -71 0 -39 10 -45 36 -21 13 12
27 19 31 15 4 -3 8 -42 10 -86 2 -79 2 -80 -23 -80 -24 0 -25 -2 -21 -59 2
-49 8 -65 30 -86 35 -36 79 -128 118 -250 34 -106 45 -128 61 -119 5 3 27 7
48 8 31 2 41 -2 51 -21 7 -12 16 -20 20 -18 4 3 10 -4 14 -15 3 -11 12 -20 20
-20 16 0 28 -36 26 -76 -1 -17 4 -38 12 -45 15 -15 11 -93 -4 -83 -5 3 -6 -2
-2 -11 3 -10 2 -20 -3 -24 -11 -8 -37 -81 -31 -87 10 -10 35 46 57 126 27 102
24 205 -10 314 -18 56 -19 70 -8 78 10 8 10 9 -2 5 -16 -4 -40 15 -40 31 0 6
-7 13 -16 16 -8 3 -13 10 -10 15 3 4 1 22 -4 40 -5 19 -5 31 1 31 6 0 6 7 1
18 -5 9 -7 44 -6 77 2 37 -2 68 -10 80 -7 11 -12 32 -10 47 1 15 -2 30 -7 33
-14 9 -11 71 5 85 8 6 12 19 8 28 -5 15 -4 15 12 0 9 -10 22 -18 27 -18 6 0 7
-5 4 -11 -4 -6 -13 -8 -20 -5 -16 6 -28 -35 -14 -49 7 -7 10 -4 7 10 -2 16 4
20 36 22 34 3 38 1 33 -17 -3 -11 -2 -20 1 -20 13 0 33 -57 39 -109 4 -37 2
-57 -10 -74 -10 -16 -12 -28 -5 -40 6 -11 5 -17 -2 -17 -5 0 -10 -4 -10 -10 0
-5 7 -7 15 -4 12 5 15 -3 16 -37 2 -58 22 177 22 261 0 84 -26 213 -64 320
-17 47 -33 94 -36 105 -6 27 45 -54 130 -202 66 -117 70 -122 97 -117 23 5 32
0 56 -33 74 -99 250 -286 263 -278 5 3 27 -28 49 -68 23 -42 67 -99 104 -136
34 -34 59 -62 53 -61 -5 2 -19 2 -30 1 -17 -1 -15 -6 15 -32 19 -16 46 -39 60
-52 71 -64 131 -107 141 -101 7 4 10 1 7 -7 -3 -8 22 -36 61 -68 36 -29 68
-56 71 -60 3 -4 25 -21 49 -39 25 -18 41 -32 36 -32 -5 0 2 -7 15 -17 14 -9
39 -29 57 -46 17 -16 36 -26 42 -23 6 4 9 1 6 -6 -3 -8 7 -21 22 -30 16 -9 42
-30 58 -46 43 -41 75 -57 75 -38 0 8 -6 16 -12 19 -7 2 1 4 19 3 29 -1 31 -3
26 -28 -4 -22 -2 -28 12 -28 11 0 15 -5 12 -14 -6 -16 45 -72 74 -81 16 -5 18
-19 16 -118 0 -62 -3 -94 -5 -73 -2 24 -12 47 -23 57 -14 12 -16 18 -7 22 24
8 -2 20 -47 21 -25 1 -45 4 -45 9 0 10 -39 24 -86 31 l-39 6 35 -14 c46 -19
27 -20 -30 -2 -25 8 -36 15 -25 15 33 1 4 17 -75 41 -122 36 -201 61 -260 80
-30 10 -82 25 -115 35 -33 9 -82 23 -109 32 -27 9 -65 17 -85 19 -19 1 -37 8
-39 13 -2 6 -7 9 -12 6 -4 -2 -21 2 -37 10 -45 22 -93 30 -93 15 0 -10 -3 -10
-15 0 -22 19 -18 1 15 -68 17 -34 30 -66 30 -71 0 -5 3 -11 8 -13 4 -2 33 -56
66 -121 32 -64 62 -117 66 -117 3 0 6 -10 6 -23 -1 -12 4 -21 12 -19 6 1 12
-5 12 -14 0 -8 40 -97 89 -197 l89 -182 66 -3 c46 -2 66 0 66 9 0 8 4 9 13 1
9 -8 106 -11 307 -9 l294 2 7 29 c5 19 4 35 -4 44 -13 16 -17 152 -5 152 4 0
8 -7 8 -15 0 -8 4 -23 9 -33 9 -19 37 -111 46 -155 l6 -28 72 4 c64 4 72 7 75
26 2 11 7 21 11 21 5 0 6 -11 3 -25 l-4 -25 1208 0 c673 0 1203 4 1195 9 -7 5
-11 13 -7 19 10 17 -5 42 -26 42 -10 0 -16 5 -13 10 3 6 18 7 32 4 l26 -7 -19
25 c-10 14 -28 29 -39 35 -11 5 -18 15 -16 23 11 40 12 80 2 80 -6 0 -11 -4
-11 -10 0 -16 -42 -12 -62 7 -11 9 -18 11 -18 5 0 -17 -25 -15 -40 3 -7 8 -29
15 -49 15 -35 0 -89 23 -168 71 -49 29 -185 129 -198 145 -5 6 -36 35 -68 63
-52 47 -61 51 -75 38 -38 -32 -82 -45 -144 -43 -97 4 -168 17 -168 31 0 17 63
72 77 68 13 -5 37 33 26 40 -5 2 -33 5 -63 6 -84 3 -101 6 -110 20 -4 8 -13
10 -19 7 -6 -4 -11 0 -11 11 0 10 -9 24 -20 30 -23 15 -53 70 -45 83 3 5 1 11
-4 14 -10 7 -1 49 19 85 12 24 26 42 77 100 35 38 40 55 22 67 -8 5 -6 10 5
16 9 5 16 18 16 28 0 12 7 20 18 20 19 0 66 94 58 116 -3 7 0 15 7 17 9 3 9 9
-1 26 -11 19 -10 21 10 21 17 0 19 3 10 9 -9 5 -13 24 -12 52 2 24 -1 52 -5
62 -4 10 -2 24 5 32 6 8 10 27 9 42 -2 15 0 34 4 41 5 6 4 12 -1 12 -5 0 -9
13 -9 29 0 22 4 28 16 24 13 -4 13 -2 -1 9 -15 13 -17 41 -18 256 0 184 4 260
16 319 26 129 54 169 79 115 10 -23 35 -30 35 -10 0 9 3 9 11 1 6 -6 18 -9 25
-6 8 3 14 -1 14 -11 0 -9 8 -16 20 -16 16 0 20 -7 20 -35 0 -19 5 -35 11 -35
6 0 9 -15 7 -37 -3 -34 -1 -37 29 -45 37 -10 50 -25 34 -41 -17 -17 -13 -34 9
-40 21 -5 56 36 45 53 -4 6 1 13 10 16 13 6 14 8 3 15 -10 7 -10 9 0 9 6 0 12
8 12 18 0 9 11 22 25 29 22 10 27 8 44 -13 11 -14 17 -33 14 -44 -3 -11 0 -20
6 -20 6 0 11 -4 11 -10 0 -5 -7 -10 -15 -10 -8 0 -15 -4 -15 -10 0 -5 7 -10
15 -10 9 0 12 -6 9 -15 -4 -10 0 -15 15 -15 12 0 21 5 21 10 0 6 7 10 15 10
11 0 15 -11 15 -40 0 -29 -4 -40 -15 -40 -8 0 -15 5 -15 10 0 6 -9 10 -20 10
-11 0 -20 -4 -20 -10 0 -5 7 -10 15 -10 8 0 15 -4 15 -10 0 -5 -4 -10 -9 -10
-5 0 -17 -3 -27 -7 -13 -5 -16 -3 -11 10 3 9 2 17 -2 17 -9 0 -37 -95 -34
-118 0 -8 -5 -21 -12 -30 -8 -10 -23 -28 -34 -42 l-20 -25 -1 28 c0 15 9 48
20 73 12 24 23 62 25 84 4 40 -11 63 -25 39 -7 -10 -11 -10 -23 0 -10 8 -17 9
-22 1 -3 -5 0 -10 8 -10 20 0 16 -44 -4 -48 -12 -2 -15 6 -13 38 1 28 -2 40
-12 40 -8 0 -14 -7 -14 -15 0 -8 -7 -15 -15 -15 -8 0 -15 -7 -15 -15 0 -8 5
-15 12 -15 6 0 4 -6 -7 -13 -10 -8 -15 -19 -11 -25 4 -7 2 -12 -3 -12 -6 0
-11 -21 -11 -49 0 -28 -5 -53 -10 -56 -8 -5 -7 -11 1 -21 9 -11 7 -14 -12 -14
-23 -1 -23 -1 -6 -14 15 -12 16 -16 4 -23 -8 -4 -18 -18 -21 -30 -6 -18 -3
-23 10 -23 10 0 14 -3 10 -8 -4 -4 -13 -7 -19 -7 -6 0 -12 -20 -13 -45 -1 -25
-6 -66 -12 -92 -5 -26 -7 -49 -5 -52 10 -10 53 18 59 38 4 12 8 51 9 89 2 60
5 70 32 96 23 21 37 27 57 24 20 -4 39 5 86 43 33 27 60 52 60 57 0 4 9 7 20
7 11 0 41 21 66 46 25 25 56 49 67 54 18 7 18 9 5 9 -25 1 -22 18 4 32 18 10
20 9 15 -5 -8 -20 -5 -20 45 4 74 35 177 24 246 -27 68 -51 107 -179 88 -293
-14 -84 -41 -125 -119 -180 -35 -24 -81 -68 -103 -98 -21 -29 -52 -66 -67 -83
-22 -24 -28 -37 -23 -57 19 -88 18 -149 -3 -196 -11 -27 -21 -52 -21 -57 0 -5
35 -26 78 -48 72 -36 231 -154 260 -193 7 -10 19 -15 29 -11 12 5 15 2 10 -10
-4 -11 -2 -14 8 -11 9 4 12 0 9 -13 -4 -13 5 -24 28 -37 18 -10 42 -27 53 -36
11 -10 63 -40 115 -66 112 -58 172 -114 218 -203 40 -79 43 -146 9 -206 -34
-60 -55 -67 -177 -61 l-106 5 -2 -24 c-1 -18 3 -25 16 -25 15 -1 15 -2 1 -13
-41 -32 -11 -36 257 -37 l264 0 -2 466 -3 467 -215 98 c-118 54 -207 99 -197
99 15 0 338 -78 400 -96 16 -5 17 41 17 870 0 541 -4 876 -9 876 -6 0 -13 -5
-16 -10 -18 -29 -68 -40 -211 -45 -82 -3 -195 -10 -252 -16 -202 -22 -232 -1
-239 165 -6 133 -6 133 0 190 9 77 18 107 49 172 32 69 42 80 102 109 44 21
50 31 190 279 36 66 69 131 73 145 3 14 12 36 20 47 15 23 9 74 -9 74 -5 0 -7
4 -4 9 3 5 14 7 25 4 13 -3 17 -11 14 -26 -5 -22 -5 -22 10 -2 8 10 12 26 9
34 -3 8 -1 12 5 8 20 -12 25 43 7 72 -17 26 -17 26 3 9 26 -24 36 -23 28 3 -5
13 -3 19 3 15 5 -3 15 1 22 9 10 12 9 15 -4 15 -9 0 -16 4 -16 9 0 13 26 32
41 29 9 -2 14 6 13 20 0 12 5 22 11 22 6 0 18 12 26 28 7 15 24 45 37 66 18
29 20 37 9 33 -12 -4 -14 -1 -10 11 3 9 10 22 15 29 6 7 7 17 3 23 -4 6 -1 11
6 9 31 -4 38 2 38 34 0 17 3 58 7 90 5 47 3 57 -9 57 -9 0 -19 9 -22 20 -3 11
-15 20 -26 20 -14 0 -19 7 -19 28 0 22 7 30 30 39 37 14 48 39 26 61 -15 15
-16 14 -16 -16 0 -34 -8 -40 -28 -20 -9 9 -12 7 -12 -9 0 -11 -6 -23 -14 -26
-13 -5 -12 -12 2 -49 9 -24 23 -48 30 -54 12 -9 12 -13 -2 -26 -9 -9 -16 -29
-16 -43 0 -24 3 -26 24 -21 20 5 23 3 19 -14 -6 -22 -18 -26 -28 -10 -4 6 -10
8 -15 5 -5 -3 -12 0 -15 6 -4 5 -13 8 -21 5 -18 -7 -44 3 -44 16 0 6 7 5 15
-2 22 -19 44 3 25 24 -18 22 -5 50 21 43 13 -3 19 -1 16 6 -2 7 -18 12 -35 12
-17 1 -32 3 -34 5 -2 3 -11 20 -21 38 -17 31 -17 32 0 33 10 1 23 1 30 0 15
-2 26 16 18 29 -5 8 -11 7 -21 -1 -11 -9 -14 -7 -14 10 0 13 -6 21 -17 21 -17
1 -17 1 0 11 15 9 21 7 32 -8 11 -15 16 -16 27 -5 11 11 10 15 -4 23 -22 13
-23 37 -2 61 13 14 14 21 5 32 -9 11 -10 20 -1 35 9 17 8 20 -6 14 -14 -5 -16
-2 -10 23 4 16 15 36 25 44 26 21 32 47 15 60 -9 8 -14 32 -14 66 0 38 -4 54
-13 54 -9 0 -13 13 -11 41 2 43 17 69 28 50 4 -6 2 -11 -5 -11 -8 0 -7 -6 3
-17 9 -10 19 -28 22 -40 4 -13 14 -23 22 -23 8 0 14 -6 14 -14 0 -8 5 -18 11
-22 8 -5 10 1 7 20 -4 18 -1 29 8 33 16 6 19 43 4 43 -6 0 -15 12 -20 26 -7
17 -15 24 -25 20 -18 -7 -32 14 -15 24 15 9 4 50 -14 50 -33 0 -66 26 -66 52
0 18 -7 29 -20 33 -24 8 -26 30 -4 39 23 9 24 8 24 -16 0 -12 2 -19 5 -16 3 3
3 24 -1 47 -5 33 -12 43 -31 47 -19 5 -21 9 -11 15 23 15 33 10 47 -22 9 -20
18 -28 28 -25 8 3 21 -1 30 -10 19 -19 9 -31 -12 -14 -13 11 -15 7 -15 -28 0
-23 -5 -42 -13 -45 -9 -4 -9 -7 1 -18 10 -10 14 -11 25 0 6 6 12 15 13 19 2
15 18 47 27 53 5 4 4 23 -3 46 -10 32 -16 39 -31 36 -11 -3 -19 0 -19 7 0 6
-7 18 -15 27 -8 8 -13 19 -9 24 7 13 24 1 24 -17 0 -15 12 -19 24 -7 4 4 27 6
51 4 25 -1 45 0 45 3 0 13 -65 35 -91 29 -25 -5 -29 -2 -29 16 0 25 -25 28
-39 4 -6 -10 -11 -13 -11 -6 0 6 -3 18 -6 27 -4 11 -1 16 10 16 19 0 34 29 20
39 -6 3 -19 22 -31 42 -16 28 -19 47 -15 87 3 38 0 58 -13 78 -21 32 -15 41
10 14 10 -11 22 -20 27 -20 16 0 8 48 -13 74 -23 29 -19 47 5 26 9 -6 18 -28
22 -47 4 -19 13 -37 20 -40 8 -3 14 -11 14 -19 0 -8 5 -14 10 -14 6 0 10 9 10
20 0 11 6 20 14 20 7 0 26 12 41 26 21 20 25 28 16 37 -10 9 -15 8 -25 -5 -7
-10 -16 -18 -20 -18 -11 0 -7 45 5 57 9 9 8 16 -4 28 -15 14 -18 13 -33 -10
-19 -30 -54 -34 -54 -6 0 10 -8 22 -17 25 -13 5 -14 9 -4 19 9 9 14 9 20 -1 6
-10 10 -10 19 1 9 11 8 18 -6 30 -15 13 -25 15 -53 7 -23 -7 -35 -7 -37 0 -3
7 -9 7 -18 -1 -11 -9 -21 -9 -37 -1 -23 11 -87 13 -87 2 0 -3 5 -11 11 -17 8
-8 8 -13 0 -17 -6 -4 -11 -2 -11 4 0 27 -26 36 -85 32 -33 -2 -69 -3 -80 -3
-11 1 -224 4 -473 7 -341 4 -457 2 -468 -7 -10 -8 -18 -8 -27 -1 -13 11 -1697
16 -1790 6 -26 -3 -44 -10 -41 -15 8 -13 -3 -11 -36 6 -26 13 -109 15 -616 15
-433 -1 -591 -4 -605 -13 -16 -10 -21 -9 -29 3 -8 13 -10 12 -10 -4 0 -17 -2
-18 -17 -4 -15 12 -54 15 -208 16 -119 0 -192 -3 -196 -10 -4 -6 -14 -5 -28 4
-18 11 -23 11 -31 -2 -6 -10 -10 -11 -10 -2 0 6 -7 12 -15 12 -8 0 -15 -4 -15
-10 0 -5 -7 -10 -15 -10 -8 0 -15 5 -15 11 0 10 -64 9 -142 -4 -16 -2 -28 0
-28 4 0 14 -38 10 -43 -3 -4 -10 -7 -10 -18 0 -15 14 -75 17 -83 4 -3 -5 -31
-5 -62 -1 -35 5 -65 4 -80 -3 -17 -8 -27 -8 -36 0 -7 6 -31 8 -53 5 -54 -7
-436 -9 -440 -2 -6 8 -359 4 -373 -5 -7 -4 -12 -3 -12 2 0 9 -131 6 -159 -3
-7 -3 -20 0 -27 6 -11 9 -18 8 -29 -1 -8 -6 -20 -8 -27 -4 -7 5 -160 9 -340
11 -295 2 -327 0 -330 -14 -3 -15 -4 -15 -20 0 -19 19 -74 23 -80 5 -3 -7 -9
-8 -18 -3 -7 5 -54 10 -104 12 -73 3 -89 2 -78 -8 6 -7 12 -19 12 -27 0 -10
-7 -8 -23 8 -20 19 -35 22 -160 26 -81 2 -137 0 -137 -5z m3640 -5 c0 -2 -7
-6 -15 -10 -8 -3 -15 -1 -15 4 0 6 7 10 15 10 8 0 15 -2 15 -4z m-40 -15 c0
-9 -41 -23 -49 -16 -3 4 28 20 47 24 1 1 2 -3 2 -8z m1337 -13 c-3 -8 -6 -5
-6 6 -1 11 2 17 5 13 3 -3 4 -12 1 -19z m-2917 2 c0 -5 -4 -10 -10 -10 -5 0
-10 5 -10 10 0 6 5 10 10 10 6 0 10 -4 10 -10z m360 0 c0 -5 -4 -10 -10 -10
-5 0 -10 5 -10 10 0 6 5 10 10 10 6 0 10 -4 10 -10z m2437 -7 c24 -10 43 -21
43 -25 0 -11 -1 -11 -56 17 -57 29 -49 33 13 8z m633 -28 c0 -5 -5 -3 -10 5
-5 8 -10 20 -10 25 0 6 5 3 10 -5 5 -8 10 -19 10 -25z m2370 25 c0 -5 -7 -10
-15 -10 -8 0 -15 5 -15 10 0 6 7 10 15 10 8 0 15 -4 15 -10z m-5842 -14 c-2
-5 -23 -9 -48 -11 l-45 -2 40 13 c43 13 58 13 53 0z m472 4 c0 -5 -2 -10 -4
-10 -3 0 -8 5 -11 10 -3 6 -1 10 4 10 6 0 11 -4 11 -10z m5230 0 c0 -5 -5 -10
-11 -10 -5 0 -7 5 -4 10 3 6 8 10 11 10 2 0 4 -4 4 -10z m-4320 -21 c0 -11 -4
-18 -10 -14 -5 3 -7 12 -3 20 7 21 13 19 13 -6z m-2720 -4 c0 -8 -2 -15 -4
-15 -2 0 -6 7 -10 15 -3 8 -1 15 4 15 6 0 10 -7 10 -15z m720 5 c0 -5 -8 -10
-17 -10 -15 0 -16 2 -3 10 19 12 20 12 20 0z m985 -1 c11 -16 1 -19 -13 -3 -7
8 -8 14 -3 14 5 0 13 -5 16 -11z m168 4 c-7 -2 -19 -2 -25 0 -7 3 -2 5 12 5
14 0 19 -2 13 -5z m270 0 c-8 -3 -13 -21 -13 -42 0 -45 -23 -84 -33 -57 -4 9
-2 16 3 16 15 0 12 78 -2 83 -7 2 3 4 22 4 19 0 29 -2 23 -4z m50 0 c-7 -2
-19 -2 -25 0 -7 3 -2 5 12 5 14 0 19 -2 13 -5z m667 3 c0 -3 -4 -8 -10 -11 -5
-3 -10 -1 -10 4 0 6 5 11 10 11 6 0 10 -2 10 -4z m4235 -6 c-3 -5 -12 -10 -18
-10 -7 0 -6 4 3 10 19 12 23 12 15 0z m135 0 c8 -5 11 -12 8 -16 -4 -3 -14 1
-23 10 -18 17 -9 21 15 6z m-7723 -62 c-2 -13 -4 -3 -4 22 0 25 2 35 4 23 2
-13 2 -33 0 -45z m53 47 c10 -12 9 -16 -5 -21 -19 -8 -40 9 -31 25 10 15 21
14 36 -4z m2420 -1 c0 -8 -4 -12 -10 -9 -5 3 -10 10 -10 16 0 5 5 9 10 9 6 0
10 -7 10 -16z m280 7 c0 -6 -4 -13 -10 -16 -5 -3 -10 1 -10 9 0 9 5 16 10 16
6 0 10 -4 10 -9z m4600 -1 c0 -5 -2 -10 -4 -10 -3 0 -8 5 -11 10 -3 6 -1 10 4
10 6 0 11 -4 11 -10z m85 -1 c10 -15 -1 -23 -20 -15 -9 3 -13 10 -10 16 8 13
22 13 30 -1z m35 7 c0 -3 -4 -8 -10 -11 -5 -3 -10 -1 -10 4 0 6 5 11 10 11 6
0 10 -2 10 -4z m-7532 -56 c-3 -18 -4 -18 -15 5 -6 14 -7 23 -2 19 5 -3 10 3
10 13 1 16 2 17 6 1 2 -10 3 -27 1 -38z m899 18 c-3 -7 -5 -2 -5 12 0 14 2 19
5 13 2 -7 2 -19 0 -25z m263 22 c0 -5 -4 -10 -10 -10 -5 0 -10 5 -10 10 0 6 5
10 10 10 6 0 10 -4 10 -10z m990 1 c0 -12 -29 -23 -42 -15 -6 4 -5 10 3 15 18
11 39 11 39 0z m1190 -9 c0 -13 -49 -37 -57 -28 -4 4 3 9 15 13 12 3 22 9 22
14 0 5 5 9 10 9 6 0 10 -4 10 -8z m-2460 -47 c0 -5 -5 -3 -10 5 -5 8 -10 20
-10 25 0 6 5 3 10 -5 5 -8 10 -19 10 -25z m3975 25 c3 -5 1 -10 -4 -10 -6 0
-11 5 -11 10 0 6 2 10 4 10 3 0 8 -4 11 -10z m-2559 -28 c-22 -5 -30 3 -21 18
5 8 11 7 22 -2 15 -12 14 -13 -1 -16z m-806 8 c0 -5 -4 -10 -10 -10 -5 0 -10
5 -10 10 0 6 5 10 10 10 6 0 10 -4 10 -10z m627 -6 c-3 -3 -12 -4 -19 -1 -8 3
-5 6 6 6 11 1 17 -2 13 -5z m1163 -2 c0 -5 -11 -14 -25 -20 -20 -9 -23 -9 -19
3 3 8 13 16 22 18 10 3 18 5 20 6 1 0 2 -3 2 -7z m4200 -2 c8 -5 11 -12 8 -16
-4 -3 -14 1 -23 10 -18 17 -9 21 15 6z m-7403 -22 c-3 -8 -6 -5 -6 6 -1 11 2
17 5 13 3 -3 4 -12 1 -19z m53 6 c0 -8 -4 -12 -10 -9 -5 3 -10 10 -10 16 0 5
5 9 10 9 6 0 10 -7 10 -16z m1438 -37 c44 -5 60 -3 68 8 6 8 19 15 28 15 9 0
19 7 23 17 5 13 8 12 15 -8 8 -21 11 -22 19 -8 7 13 16 15 41 9 74 -19 79 -22
73 -41 -4 -11 -2 -19 3 -19 5 0 13 -17 17 -37 5 -28 3 -38 -10 -46 -12 -6 -14
-17 -10 -37 3 -16 2 -31 -4 -35 -7 -4 -11 4 -11 19 0 14 -4 28 -10 31 -17 10
-11 25 10 25 22 0 26 16 10 40 -8 13 -11 13 -19 1 -7 -11 -15 -11 -39 -3 -34
11 -42 8 -42 -20 0 -10 -4 -18 -10 -18 -5 0 -10 6 -10 14 0 24 -17 28 -36 9
-16 -16 -17 -16 -12 12 3 17 7 37 10 45 3 8 3 12 1 8 -3 -5 -10 -8 -16 -8 -6
0 -19 -7 -29 -17 -15 -13 -18 -13 -18 -2 0 11 -14 14 -59 13 -33 -1 -65 -5
-70 -9 -18 -10 -12 -25 9 -25 11 0 20 -4 20 -10 0 -15 -78 -12 -83 3 -3 9 -7
9 -19 0 -8 -7 -18 -10 -21 -6 -4 3 -13 0 -22 -7 -10 -8 -15 -9 -15 -1 0 7 -27
11 -80 11 -77 0 -80 1 -86 25 -3 14 -11 25 -16 25 -7 0 -6 5 1 13 6 8 8 17 4
20 -12 13 28 19 42 7 8 -7 24 -10 35 -7 17 4 20 2 15 -14 -5 -15 -1 -19 19
-19 20 0 24 4 19 17 -5 13 -2 15 15 11 12 -4 36 -1 53 5 27 11 32 9 49 -13
l20 -25 0 28 c0 27 22 38 35 17 9 -15 25 -2 26 23 2 18 3 17 6 -4 4 -24 9 -27
61 -32z m1172 -24 c0 -2 -6 -3 -14 -3 -10 0 -16 -14 -18 -42 -2 -24 -4 -5 -4
41 l-1 83 19 -38 c10 -21 18 -39 18 -41z m2194 38 c16 -16 26 -35 24 -42 -2
-7 -18 6 -37 30 -37 47 -29 55 13 12z m-3876 7 c16 -16 15 -48 -2 -48 -9 0
-12 7 -9 20 3 11 0 20 -6 20 -6 0 -11 5 -11 10 0 14 13 13 28 -2z m1214 -3 c0
-5 -5 -11 -11 -13 -6 -2 -11 4 -11 13 0 9 5 15 11 13 6 -2 11 -8 11 -13z m798
-5 c0 -11 -4 -20 -10 -20 -5 0 -10 9 -10 20 0 11 5 20 10 20 6 0 10 -9 10 -20z
m-3011 -12 c10 -26 6 -38 -12 -38 -8 0 -8 3 1 9 11 7 11 9 -2 14 -18 7 -22 37
-6 37 6 0 14 -10 19 -22z m98 0 c-3 -8 -6 -5 -6 6 -1 11 2 17 5 13 3 -3 4 -12
1 -19z m53 12 c0 -5 -4 -10 -10 -10 -5 0 -10 5 -10 10 0 6 5 10 10 10 6 0 10
-4 10 -10z m610 -15 c0 -14 -4 -25 -10 -25 -5 0 -10 11 -10 25 0 14 5 25 10
25 6 0 10 -11 10 -25z m1316 -25 c8 0 11 -6 8 -15 -4 -8 -9 -15 -13 -15 -9 1
-39 69 -32 75 3 4 9 -5 14 -19 5 -14 15 -26 23 -26z m194 10 c0 -8 11 -11 30
-8 21 3 30 0 30 -10 0 -8 -6 -12 -15 -8 -9 3 -15 0 -15 -9 0 -29 29 -15 41 20
14 38 32 41 37 7 2 -15 -2 -22 -12 -22 -9 0 -23 -11 -32 -25 -18 -28 -44 -33
-44 -10 0 9 -9 15 -21 15 -16 0 -20 -5 -16 -20 3 -11 1 -20 -4 -20 -5 0 -9 4
-9 9 0 4 -10 21 -22 36 -19 24 -22 25 -31 10 -6 -11 -5 -21 2 -28 16 -16 14
-24 -7 -29 -15 -4 -17 0 -14 22 3 21 -1 28 -18 33 -19 5 -20 8 -10 27 8 14 17
19 28 15 20 -8 20 -8 55 -6 24 1 27 4 21 23 -6 20 -5 21 10 6 9 -9 16 -22 16
-28z m149 13 c0 -25 -1 -26 -9 -8 -12 27 -12 35 0 35 6 0 10 -12 9 -27z m60
-23 c4 0 15 -6 24 -13 16 -11 16 -13 -4 -30 -20 -18 -21 -18 -14 2 9 29 -21
40 -40 15 -10 -15 -16 -16 -26 -7 -9 9 -6 14 10 25 12 7 21 24 22 38 l1 25 10
-27 c5 -16 13 -28 17 -28z m568 28 c-3 -8 -6 -5 -6 6 -1 11 2 17 5 13 3 -3 4
-12 1 -19z m-2247 -14 c0 -8 -4 -14 -10 -14 -5 0 -10 9 -10 21 0 11 5 17 10
14 6 -3 10 -13 10 -21z m131 6 c33 0 39 -3 39 -21 0 -18 -2 -19 -15 -9 -8 7
-26 10 -40 8 -14 -3 -25 -2 -25 3 0 4 -2 13 -3 21 -2 7 -2 10 0 6 3 -5 22 -8
44 -8z m136 -39 c-10 -11 -13 -9 -18 10 -12 43 -9 52 10 28 15 -19 17 -27 8
-38z m1506 39 c3 -11 12 -20 21 -20 9 0 16 -8 16 -19 0 -29 -17 -35 -30 -11
-6 11 -17 20 -25 20 -15 0 -21 31 -8 43 11 12 21 8 26 -13z m4957 12 c0 -5
-12 -14 -27 -21 -20 -9 -24 -14 -14 -21 17 -10 7 -40 -13 -40 -8 0 -21 6 -28
13 -7 7 -22 17 -33 21 -14 6 -16 10 -7 13 7 3 21 -2 31 -11 16 -15 19 -14 32
11 8 16 18 31 24 35 14 10 35 10 35 0z m-7269 -32 c4 -3 5 -11 1 -17 -5 -8
-12 -7 -26 3 -11 8 -14 14 -8 14 7 0 12 8 13 18 0 13 2 14 6 2 3 -8 10 -17 14
-20z m1642 15 c15 0 27 3 27 8 0 4 5 7 10 7 6 0 10 -4 10 -10 0 -14 -68 -43
-85 -36 -11 4 -15 -2 -15 -24 0 -23 4 -28 16 -23 19 7 64 -16 64 -34 0 -18
-10 -16 -26 5 -13 16 -15 16 -30 -3 -11 -14 -18 -16 -21 -7 -7 17 -23 15 -23
-3 0 -8 -7 -15 -15 -15 -21 0 -19 18 5 32 24 15 26 36 5 44 -8 4 -15 15 -15
25 0 10 -4 19 -10 19 -5 0 -10 5 -10 11 0 7 12 10 30 7 17 -3 30 -1 30 4 0 5
6 6 13 1 6 -4 24 -8 40 -8z m117 1 c0 -8 6 -16 13 -19 9 -3 9 -8 1 -17 -9 -9
-15 -6 -28 11 -20 29 -20 39 -1 39 8 0 15 -6 15 -14z m1115 -6 c-10 -11 -22
-20 -27 -20 -10 0 24 38 36 39 5 1 1 -8 -9 -19z m1999 5 c3 -8 1 -15 -4 -15
-6 0 -10 7 -10 15 0 8 2 15 4 15 2 0 6 -7 10 -15z m-4929 -5 c3 -5 1 -10 -4
-10 -6 0 -11 5 -11 10 0 6 2 10 4 10 3 0 8 -4 11 -10z m669 -7 c4 -9 1 -22 -6
-29 -18 -18 -58 -6 -58 16 0 13 6 17 20 13 11 -3 20 0 20 6 0 17 17 13 24 -6z
m1841 7 c3 -5 1 -10 -4 -10 -6 0 -11 5 -11 10 0 6 2 10 4 10 3 0 8 -4 11 -10z
m2245 -30 c-12 -10 -28 -16 -36 -13 -17 6 -14 25 6 31 8 3 10 0 5 -8 -6 -9 -3
-9 14 -1 11 7 21 17 22 24 0 9 2 8 6 -1 3 -7 -5 -21 -17 -32z m-4865 20 c-3
-5 -14 -10 -23 -9 -14 0 -13 2 3 9 27 11 27 11 20 0z m325 -15 c0 -20 26 -19
34 2 6 15 8 15 20 -3 17 -25 26 -64 15 -64 -5 0 -9 7 -9 15 0 8 -6 15 -14 15
-18 0 -29 -27 -13 -34 8 -3 8 -5 1 -5 -14 -1 -38 34 -46 67 -4 12 -2 22 3 22
5 0 9 -7 9 -15z m147 -7 c-3 -8 -6 -5 -6 6 -1 11 2 17 5 13 3 -3 4 -12 1 -19z
m1403 12 c0 -5 -4 -10 -10 -10 -5 0 -10 5 -10 10 0 6 5 10 10 10 6 0 10 -4 10
-10z m5560 0 c0 -5 -2 -10 -4 -10 -3 0 -8 5 -11 10 -3 6 -1 10 4 10 6 0 11 -4
11 -10z m-6745 -10 c3 -5 -1 -10 -10 -10 -9 0 -13 5 -10 10 3 6 8 10 10 10 2
0 7 -4 10 -10z m2155 -10 c0 -5 -4 -10 -10 -10 -5 0 -10 5 -10 10 0 6 5 10 10
10 6 0 10 -4 10 -10z m150 0 c0 -5 -5 -10 -11 -10 -5 0 -7 5 -4 10 3 6 8 10
11 10 2 0 4 -4 4 -10z m3332 -32 c5 -12 5 -18 -2 -18 -5 0 -10 6 -10 14 0 8
-5 16 -12 18 -7 3 -8 9 -3 18 7 12 9 12 13 0 3 -8 9 -23 14 -32z m-6042 22 c0
-5 -4 -10 -10 -10 -5 0 -10 5 -10 10 0 6 5 10 10 10 6 0 10 -4 10 -10z m2370
-5 c0 -8 -4 -15 -10 -15 -5 0 -10 7 -10 15 0 8 5 15 10 15 6 0 10 -7 10 -15z
m2230 3 c0 6 7 12 15 12 21 0 19 -23 -3 -43 -17 -15 -19 -15 -36 5 -14 16 -15
22 -5 29 8 5 17 3 21 -4 6 -9 8 -9 8 1z m-2410 -13 c0 -8 -4 -15 -9 -15 -13 0
-22 16 -14 24 11 11 23 6 23 -9z m2640 9 c0 -10 -28 -34 -39 -34 -16 0 -13 11
7 26 18 14 32 18 32 8z m-2238 -26 c0 -13 1 -29 1 -35 -1 -9 4 -10 18 -2 11 5
17 14 14 20 -4 5 1 9 9 9 22 0 20 -9 -10 -36 -37 -35 -49 -30 -51 21 -1 45 16
66 19 23z m-1002 -3 c0 -8 -4 -15 -10 -15 -5 0 -10 7 -10 15 0 8 5 15 10 15 6
0 10 -7 10 -15z m90 5 c0 -5 -4 -10 -10 -10 -5 0 -10 5 -10 10 0 6 5 10 10 10
6 0 10 -4 10 -10z m2981 -28 c14 -37 -5 -52 -32 -25 -18 18 -19 23 -8 41 15
24 27 20 40 -16z m2329 28 c0 -5 -5 -10 -11 -10 -5 0 -7 5 -4 10 3 6 8 10 11
10 2 0 4 -4 4 -10z m150 -25 c18 11 11 -15 -10 -37 -25 -27 -35 -17 -36 34 0
40 0 41 18 19 9 -13 22 -20 28 -16z m-7425 14 c11 -16 1 -19 -13 -3 -7 8 -8
14 -3 14 5 0 13 -5 16 -11z m2009 -4 c-4 -8 -7 -15 -9 -15 -2 0 -5 7 -9 15 -3
9 0 15 9 15 9 0 12 -6 9 -15z m-1544 1 c0 -3 -4 -8 -10 -11 -5 -3 -10 -1 -10
4 0 6 5 11 10 11 6 0 10 -2 10 -4z m290 -6 c0 -5 -2 -10 -4 -10 -3 0 -8 5 -11
10 -3 6 -1 10 4 10 6 0 11 -4 11 -10z m320 -11 c0 -11 -4 -17 -10 -14 -5 3
-10 13 -10 21 0 8 5 14 10 14 6 0 10 -9 10 -21z m46 -57 c-12 -11 -15 5 -8 44
l7 39 3 -39 c2 -21 1 -41 -2 -44z m241 56 c-3 -8 -6 -5 -6 6 -1 11 2 17 5 13
3 -3 4 -12 1 -19z m243 -45 c0 -67 -6 -81 -12 -30 -2 15 -13 34 -23 42 -20 14
-20 15 5 35 14 11 26 20 28 20 1 0 2 -30 2 -67z m3427 45 c-3 -8 -6 -5 -6 6
-1 11 2 17 5 13 3 -3 4 -12 1 -19z m113 18 c0 -3 -4 -8 -10 -11 -5 -3 -10 -1
-10 4 0 6 5 11 10 11 6 0 10 -2 10 -4z m2010 0 c0 -3 -4 -8 -10 -11 -5 -3 -10
-1 -10 4 0 6 5 11 10 11 6 0 10 -2 10 -4z m204 -12 c3 -8 2 -12 -4 -9 -6 3
-10 10 -10 16 0 14 7 11 14 -7z m-7089 -34 c-5 -8 -11 -8 -17 -2 -6 6 -7 16
-3 22 5 8 11 8 17 2 6 -6 7 -16 3 -22z m655 4 c0 -8 -4 -12 -10 -9 -5 3 -10
13 -10 21 0 8 5 12 10 9 6 -3 10 -13 10 -21z m1805 16 c3 -5 1 -10 -4 -10 -6
0 -11 5 -11 10 0 6 2 10 4 10 3 0 8 -4 11 -10z m-2008 -22 c-3 -8 -6 -5 -6 6
-1 11 2 17 5 13 3 -3 4 -12 1 -19z m468 -8 c20 -38 19 -40 -10 -27 -24 11 -33
36 -18 50 10 10 11 9 28 -23z m462 -17 c6 -21 9 -41 7 -45 -8 -13 -24 2 -24
22 0 10 -5 20 -11 22 -10 3 -2 38 10 38 3 0 11 -17 18 -37z m5983 -3 c0 -10 5
-22 10 -25 6 -3 10 -10 10 -16 0 -5 -4 -9 -10 -9 -5 0 -10 7 -10 15 0 8 -4 15
-10 15 -5 0 -10 12 -10 26 0 14 4 23 10 19 6 -3 10 -15 10 -25z m-4875 10 c-3
-5 -10 -10 -16 -10 -5 0 -9 5 -9 10 0 6 7 10 16 10 8 0 12 -4 9 -10z m-2468
-6 c-3 -3 -12 -4 -19 -1 -8 3 -5 6 6 6 11 1 17 -2 13 -5z m1440 0 c-3 -3 -12
-4 -19 -1 -8 3 -5 6 6 6 11 1 17 -2 13 -5z m3233 -4 c0 -5 -2 -10 -4 -10 -3 0
-8 5 -11 10 -3 6 -1 10 4 10 6 0 11 -4 11 -10z m66 -17 c0 -10 -7 -24 -13 -31
-11 -11 -16 -11 -28 2 -8 8 -15 18 -15 22 0 5 5 3 12 -4 15 -15 31 -16 22 -1
-5 9 10 27 22 29 1 0 1 -8 0 -17z m-4776 -13 c0 -5 -4 -10 -10 -10 -5 0 -10 5
-10 10 0 6 5 10 10 10 6 0 10 -4 10 -10z m2565 0 c-3 -5 -11 -10 -16 -10 -6 0
-7 5 -4 10 3 6 11 10 16 10 6 0 7 -4 4 -10z m4799 -22 c9 -17 16 -37 16 -45 0
-7 7 -16 15 -19 19 -8 20 -44 1 -44 -7 0 -19 15 -26 33 -6 17 -16 40 -21 49
-9 18 -13 58 -5 58 3 0 12 -14 20 -32z m-7304 7 c0 -8 -7 -15 -15 -15 -9 0
-12 6 -9 15 4 8 10 15 15 15 5 0 9 -7 9 -15z m2355 5 c3 -5 1 -10 -4 -10 -6 0
-11 5 -11 10 0 6 2 10 4 10 3 0 8 -4 11 -10z m2612 -27 c-3 -10 -5 -4 -5 12 0
17 2 24 5 18 2 -7 2 -21 0 -30z m-2498 6 c-22 -14 -33 -10 -19 6 7 8 17 12 22
9 6 -4 5 -10 -3 -15z m2411 11 c0 -5 -4 -10 -10 -10 -5 0 -10 5 -10 10 0 6 5
10 10 10 6 0 10 -4 10 -10z m2277 -12 c-3 -8 -6 -5 -6 6 -1 11 2 17 5 13 3 -3
4 -12 1 -19z m-5376 -18 c5 0 9 -4 9 -10 0 -5 -7 -10 -15 -10 -10 0 -15 9 -14
28 1 16 3 20 6 10 2 -10 9 -18 14 -18z m5182 10 c3 -11 1 -20 -4 -20 -5 0 -9
9 -9 20 0 11 2 20 4 20 2 0 6 -9 9 -20z m-6243 -26 c0 -8 -4 -12 -10 -9 -5 3
-10 10 -10 16 0 5 5 9 10 9 6 0 10 -7 10 -16z m557 -6 c-3 -8 -6 -5 -6 6 -1
11 2 17 5 13 3 -3 4 -12 1 -19z m243 12 c0 -5 -7 -10 -15 -10 -8 0 -15 5 -15
10 0 6 7 10 15 10 8 0 15 -4 15 -10z m896 -12 c-46 -46 -52 -49 -65 -34 -10
12 -8 13 10 9 19 -5 20 -3 14 18 -5 18 -4 20 4 9 9 -13 12 -13 28 3 9 9 21 17
25 17 4 0 -3 -10 -16 -22z m4600 -25 c-11 -11 -19 6 -11 24 8 17 8 17 12 0 3
-10 2 -21 -1 -24z m-6376 0 c0 -22 -2 -25 -10 -13 -13 20 -13 40 0 40 6 0 10
-12 10 -27z m747 5 c-3 -8 -6 -5 -6 6 -1 11 2 17 5 13 3 -3 4 -12 1 -19z
m3410 -53 c2 -16 -4 -13 -27 15 -16 19 -30 42 -30 50 0 23 56 -40 57 -65z m87
34 c-3 -5 -10 -7 -15 -3 -5 3 -7 10 -3 15 3 5 10 7 15 3 5 -3 7 -10 3 -15z
m-3584 -10 c0 -5 -4 -9 -10 -9 -5 0 -10 7 -10 16 0 8 5 12 10 9 6 -3 10 -10
10 -16z m69 -27 c1 -10 -3 -9 -15 3 -10 9 -13 22 -9 33 7 15 8 15 15 -3 5 -11
9 -26 9 -33z m-124 28 c3 -5 1 -10 -4 -10 -6 0 -11 5 -11 10 0 6 2 10 4 10 3
0 8 -4 11 -10z m6036 -13 c-10 -9 -11 -8 -5 6 3 10 9 15 12 12 3 -3 0 -11 -7
-18z m-4931 3 c0 -5 -4 -10 -10 -10 -5 0 -10 5 -10 10 0 6 5 10 10 10 6 0 10
-4 10 -10z m4404 -15 c9 -14 12 -25 6 -25 -5 0 -10 4 -10 9 0 5 -7 17 -16 25
-8 9 -11 16 -6 16 5 0 17 -11 26 -25z m223 19 c-3 -3 -12 -4 -19 -1 -8 3 -5 6
6 6 11 1 17 -2 13 -5z m-6304 -11 c-7 -2 -19 -2 -25 0 -7 3 -2 5 12 5 14 0 19
-2 13 -5z m848 -55 c-6 -18 -8 -13 -8 22 0 35 2 40 8 22 5 -12 5 -32 0 -44z
m-786 43 c3 -5 1 -12 -5 -16 -5 -3 -10 1 -10 9 0 18 6 21 15 7z m6229 -7 c9
-24 2 -26 -12 -4 -7 11 -8 20 -3 20 5 0 12 -7 15 -16z m-6389 -4 c3 -5 1 -10
-4 -10 -6 0 -11 5 -11 10 0 6 2 10 4 10 3 0 8 -4 11 -10z m3372 -52 c289 -268
486 -540 603 -833 17 -44 35 -89 40 -100 95 -228 232 -741 275 -1030 9 -60 18
-126 21 -145 25 -163 14 -499 -21 -630 -20 -78 -30 -92 -21 -30 6 36 5 41 -5
27 -6 -10 -13 -28 -15 -40 -12 -77 -20 -92 -44 -88 l-25 3 25 -21 25 -21 -115
6 c-108 6 -116 5 -137 -15 -32 -30 -29 -53 11 -95 18 -20 32 -36 30 -36 -15 0
-83 44 -78 51 3 5 0 9 -6 9 -7 0 -20 10 -29 22 -17 20 -17 25 -3 62 21 55 26
61 77 85 53 25 128 27 169 6 16 -9 38 -12 53 -9 l26 7 -6 326 c-6 385 -31 641
-82 866 -58 253 -115 460 -145 530 -4 11 -27 63 -49 116 -43 102 -112 237
-141 279 -9 14 -28 45 -42 70 -68 122 -187 312 -233 373 -51 65 -105 117 -105
100 0 -4 -4 -2 -9 6 -10 16 -26 -263 -18 -314 3 -19 2 -35 -3 -35 -5 0 -12
-21 -15 -47 -19 -141 -86 -356 -148 -479 -95 -188 -287 -378 -432 -429 -112
-40 -294 -21 -448 47 -38 16 -72 27 -75 23 -4 -4 -6 -30 -5 -58 3 -84 -15
-192 -41 -250 -27 -62 -112 -152 -181 -192 -115 -68 -269 -91 -333 -50 -64 42
-196 216 -288 381 -49 88 -74 109 -74 59 0 -39 -15 -30 -41 24 -13 27 -26 48
-29 46 -3 -1 -13 8 -23 21 -20 27 -7 33 14 7 12 -14 15 -7 19 57 3 40 10 75
16 77 6 2 19 -16 29 -39 66 -156 195 -388 216 -388 4 0 20 -20 35 -45 14 -25
29 -45 34 -45 4 0 10 -9 13 -21 3 -12 10 -18 16 -14 6 3 11 1 11 -5 0 -30 130
-41 215 -19 208 56 284 193 285 514 0 72 5 137 10 145 8 13 16 11 57 -12 235
-131 297 -153 419 -144 44 4 94 10 110 15 130 37 253 142 307 262 75 166 122
343 147 549 30 252 49 418 56 490 10 101 10 101 101 18z m3073 43 c0 -11 -5
-23 -10 -26 -6 -4 -8 -11 -5 -16 4 -5 2 -9 -4 -9 -15 0 -23 18 -11 25 5 3 10
15 10 26 0 10 5 19 10 19 6 0 10 -9 10 -19z m-5330 -1 c0 -5 -5 -10 -11 -10
-5 0 -7 5 -4 10 3 6 8 10 11 10 2 0 4 -4 4 -10z m-1020 -4 c0 -2 -9 -6 -20 -9
-11 -3 -18 -1 -14 4 5 9 34 13 34 5z m120 -6 c0 -5 -4 -10 -10 -10 -5 0 -10 5
-10 10 0 6 5 10 10 10 6 0 10 -4 10 -10z m6330 0 c0 -5 -5 -10 -11 -10 -5 0
-7 5 -4 10 3 6 8 10 11 10 2 0 4 -4 4 -10z m-5733 -22 c-3 -8 -6 -5 -6 6 -1
11 2 17 5 13 3 -3 4 -12 1 -19z m5793 12 c0 -5 -2 -10 -4 -10 -3 0 -8 5 -11
10 -3 6 -1 10 4 10 6 0 11 -4 11 -10z m-425 -9 c5 -10 2 -27 -31 -166 -33
-141 -53 -247 -47 -261 3 -8 -1 -14 -8 -14 -7 0 -10 -3 -6 -6 3 -4 22 3 42 15
46 27 75 27 75 1 0 -11 -5 -19 -12 -18 -8 2 -15 -16 -20 -47 -10 -61 -13 -75
-23 -98 -4 -9 -5 -26 -2 -37 3 -11 1 -18 -4 -14 -5 3 -9 -4 -9 -16 0 -21 -33
-179 -66 -312 -9 -36 -13 -72 -8 -79 4 -7 3 -10 -3 -6 -7 4 -15 -18 -22 -61
-18 -109 -19 -114 -25 -120 -3 -3 -8 -3 -10 -1 -5 5 -19 382 -17 467 1 36 -3
62 -9 62 -5 0 -10 5 -10 11 0 5 5 7 10 4 6 -4 10 6 10 24 0 16 -5 33 -10 36
-8 5 -7 11 1 21 15 18 5 18 -32 -2 -19 -10 -29 -21 -25 -30 3 -8 1 -14 -4 -14
-6 0 -10 4 -10 9 0 4 -11 6 -25 4 l-24 -5 -3 213 c-3 249 -3 260 23 266 10 3
19 9 19 13 0 4 10 12 23 17 28 13 207 128 222 142 13 13 32 14 40 2z m-1628
-48 c-3 -10 -5 -4 -5 12 0 17 2 24 5 18 2 -7 2 -21 0 -30z m1780 -25 c-2 -13
-4 -3 -4 22 0 25 2 35 4 23 2 -13 2 -33 0 -45z m-4657 42 c0 -5 -5 -10 -11
-10 -5 0 -7 5 -4 10 3 6 8 10 11 10 2 0 4 -4 4 -10z m2645 -31 c4 -10 11 -19
16 -19 5 0 9 -7 9 -16 0 -13 -5 -11 -24 8 -29 33 -40 59 -21 52 8 -3 17 -14
20 -25z m2302 25 c-3 -3 -12 -4 -19 -1 -8 3 -5 6 6 6 11 1 17 -2 13 -5z
m-4977 -19 c0 -10 -40 -49 -45 -44 -6 6 27 49 38 49 4 0 7 -2 7 -5z m5050 -20
c0 -8 -7 -15 -15 -15 -8 0 -15 7 -15 15 0 8 7 15 15 15 8 0 15 -7 15 -15z
m-60 -5 c0 -5 -12 -10 -27 -9 l-28 1 25 8 c14 4 26 8 28 9 1 1 2 -3 2 -9z
m-5675 -10 c3 -5 2 -10 -4 -10 -5 0 -13 5 -16 10 -3 6 -2 10 4 10 5 0 13 -4
16 -10z m5777 -47 c3 -27 1 -52 -4 -57 -5 -6 -8 -3 -8 7 0 9 -4 17 -10 17 -5
0 -10 18 -10 40 0 60 27 54 32 -7z m-2152 22 c0 -8 -4 -15 -10 -15 -5 0 -10 7
-10 15 0 8 5 15 10 15 6 0 10 -7 10 -15z m1895 5 c3 -6 -1 -13 -10 -16 -19 -8
-30 0 -20 15 8 14 22 14 30 1z m-7008 -32 c-3 -7 -5 -2 -5 12 0 14 2 19 5 13
2 -7 2 -19 0 -25z m700 0 c-3 -7 -5 -2 -5 12 0 14 2 19 5 13 2 -7 2 -19 0 -25z
m1417 17 c-4 -8 -11 -15 -16 -15 -6 0 -5 6 2 15 7 8 14 15 16 15 2 0 1 -7 -2
-15z m5026 5 c0 -5 -4 -10 -10 -10 -5 0 -10 5 -10 10 0 6 5 10 10 10 6 0 10
-4 10 -10z m-6364 -47 c-4 -4 -14 1 -22 11 -22 31 -17 43 8 19 12 -13 18 -26
14 -30z m531 25 c-3 -8 -6 -5 -6 6 -1 11 2 17 5 13 3 -3 4 -12 1 -19z m5893
12 c0 -5 -7 -10 -15 -10 -8 0 -15 5 -15 10 0 6 7 10 15 10 8 0 15 -4 15 -10z
m-6365 -40 c-5 -8 -11 -8 -17 -2 -6 6 -7 16 -3 22 5 8 11 8 17 2 6 -6 7 -16 3
-22z m40 10 c3 -5 1 -10 -4 -10 -6 0 -11 5 -11 10 0 6 2 10 4 10 3 0 8 -4 11
-10z m6241 -27 c-4 -4 -11 -1 -16 7 -16 25 -11 35 7 17 9 -9 13 -20 9 -24z
m54 21 c0 -2 -7 -4 -15 -4 -8 0 -15 4 -15 10 0 5 7 7 15 4 8 -4 15 -8 15 -10z
m-2230 -49 c0 -5 -9 1 -20 15 -11 14 -20 30 -20 35 0 6 9 -1 20 -15 11 -14 20
-29 20 -35z m-3610 41 c0 -3 -4 -8 -10 -11 -5 -3 -10 -1 -10 4 0 6 5 11 10 11
6 0 10 -2 10 -4z m60 -17 c0 -11 -4 -17 -10 -14 -5 3 -10 13 -10 21 0 8 5 14
10 14 6 0 10 -9 10 -21z m59 -10 c17 -48 13 -57 -9 -24 -21 32 -26 55 -11 55
5 0 14 -14 20 -31z m5621 21 c0 -5 -6 -10 -14 -10 -8 0 -18 5 -21 10 -3 6 3
10 14 10 12 0 21 -4 21 -10z m150 -30 c0 -22 -4 -40 -10 -40 -11 0 -13 39 -4
64 10 26 14 19 14 -24z m87 18 c-3 -8 -6 -5 -6 6 -1 11 2 17 5 13 3 -3 4 -12
1 -19z m63 18 c0 -11 -19 -15 -25 -6 -3 5 1 10 9 10 9 0 16 -2 16 -4z m-5873
-38 c-3 -8 -6 -5 -6 6 -1 11 2 17 5 13 3 -3 4 -12 1 -19z m563 18 c0 -2 -7 -9
-15 -16 -13 -11 -14 -10 -9 4 5 14 24 23 24 12z m1962 -68 c7 -16 19 -28 25
-28 7 0 13 -6 13 -12 0 -7 15 -35 33 -63 98 -146 132 -200 147 -234 6 -13 24
-43 39 -67 16 -23 32 -52 36 -63 3 -12 11 -21 16 -21 5 0 9 -9 9 -19 0 -11 7
-26 15 -35 8 -8 15 -23 15 -34 0 -11 7 -25 16 -33 9 -7 13 -21 10 -32 -3 -12
3 -26 16 -37 21 -16 21 -17 -16 -39 -26 -17 -46 -22 -67 -17 -17 3 -29 1 -29
-5 0 -6 -8 -8 -18 -4 -11 3 -32 -1 -48 -10 -16 -8 -39 -15 -51 -15 -13 0 -23
-5 -23 -11 0 -6 -7 -9 -15 -5 -21 8 -115 -87 -109 -111 2 -10 6 -40 8 -68 3
-27 7 -63 10 -80 3 -16 9 -112 12 -211 7 -177 -6 -384 -26 -429 -5 -11 -18
-53 -30 -94 -23 -80 -86 -210 -122 -252 -13 -15 -32 -38 -43 -52 -29 -37 -110
-120 -127 -132 -8 -5 -49 -33 -90 -61 -78 -53 -205 -111 -348 -159 l-86 -28
-164 82 c-91 46 -173 91 -183 100 -10 9 -35 69 -57 132 -22 63 -44 123 -50
134 -46 93 -59 161 -40 210 28 74 134 158 240 190 33 10 204 83 313 134 49 23
91 41 94 41 8 0 106 45 158 72 187 98 384 282 434 406 8 17 18 32 23 32 17 0
20 30 4 46 -13 12 -14 19 -5 30 9 11 9 29 -1 92 0 1 -6 2 -13 2 -7 0 -22 7
-33 15 -19 15 -19 15 3 32 16 13 21 24 17 41 -7 26 -22 29 -31 5 -10 -28 -66
-113 -74 -113 -18 0 -18 21 0 36 10 9 17 23 14 31 -3 7 2 22 12 33 9 10 14 24
10 30 -4 6 -2 16 3 23 5 7 12 26 15 42 3 17 13 66 21 110 17 84 28 168 30 223
0 17 4 32 9 32 4 0 7 7 7 15 0 8 -4 15 -10 15 -6 0 -6 9 0 25 9 25 18 91 24
180 2 28 4 52 5 55 2 8 40 -42 53 -72z m2970 42 c3 -20 0 -30 -9 -30 -13 0
-18 41 -6 53 10 10 10 9 15 -23z m245 -32 c-3 -7 -5 -2 -5 12 0 14 2 19 5 13
2 -7 2 -19 0 -25z m-6872 12 c3 -5 1 -10 -4 -10 -6 0 -11 5 -11 10 0 6 2 10 4
10 3 0 8 -4 11 -10z m45 -10 c0 -11 -7 -23 -15 -27 -25 -9 -30 5 -9 26 24 25
24 25 24 1z m560 -2 c0 -16 -3 -19 -11 -11 -6 6 -8 16 -5 22 11 17 16 13 16
-11z m445 12 c3 -5 1 -10 -4 -10 -6 0 -11 5 -11 10 0 6 2 10 4 10 3 0 8 -4 11
-10z m5689 -6 c9 -22 -3 -32 -14 -14 -12 19 -12 30 -1 30 5 0 12 -7 15 -16z
m36 6 c0 -5 -4 -10 -10 -10 -5 0 -10 5 -10 10 0 6 5 10 10 10 6 0 10 -4 10
-10z m-7825 -18 c-3 -3 -11 0 -18 7 -9 10 -8 11 6 5 10 -3 15 -9 12 -12z m955
-4 c0 -16 -3 -19 -11 -11 -6 6 -8 16 -5 22 11 17 16 13 16 -11z m1692 -15
c-21 -21 -48 -51 -59 -68 -30 -42 -39 -25 -10 18 27 39 43 56 72 74 37 22 36
13 -3 -24z m5102 16 c-8 -14 -24 -10 -24 6 0 9 6 12 15 9 8 -4 12 -10 9 -15z
m266 -31 c0 -26 -24 -18 -28 10 -3 16 1 20 12 16 9 -3 16 -15 16 -26z m-66 7
c3 -8 1 -15 -4 -15 -6 0 -10 7 -10 15 0 8 2 15 4 15 2 0 6 -7 10 -15z m166 -5
c0 -11 -7 -20 -15 -20 -8 0 -15 9 -15 20 0 11 7 20 15 20 8 0 15 -9 15 -20z
m-7193 -32 c-3 -7 -5 -2 -5 12 0 14 2 19 5 13 2 -7 2 -19 0 -25z m6830 -10
c-3 -8 -6 -5 -6 6 -1 11 2 17 5 13 3 -3 4 -12 1 -19z m223 12 c0 -5 -4 -10
-10 -10 -5 0 -10 5 -10 10 0 6 5 10 10 10 6 0 10 -4 10 -10z m-45 -10 c3 -5 1
-10 -4 -10 -6 0 -11 5 -11 10 0 6 2 10 4 10 3 0 8 -4 11 -10z m-2215 -41 c12
-23 20 -43 18 -45 -3 -2 -14 17 -26 41 -27 56 -20 60 8 4z m-1093 -11 c-3 -8
-6 -5 -6 6 -1 11 2 17 5 13 3 -3 4 -12 1 -19z m-4509 -8 c7 -11 10 -20 6 -20
-7 0 -34 27 -34 34 0 13 16 5 28 -14z m1906 -20 c-6 -5 -24 21 -24 34 0 6 6 1
14 -10 8 -10 12 -21 10 -24z m543 8 c-3 -8 -6 -5 -6 6 -1 11 2 17 5 13 3 -3 4
-12 1 -19z m5410 -13 c9 -24 -1 -27 -20 -5 -14 17 -15 20 -2 20 9 0 18 -7 22
-15z m-6850 -17 c-3 -8 -6 -5 -6 6 -1 11 2 17 5 13 3 -3 4 -12 1 -19z m463 12
c0 -5 -4 -10 -10 -10 -5 0 -10 5 -10 10 0 6 5 10 10 10 6 0 10 -4 10 -10z
m948 -61 c-12 -22 -24 -36 -26 -30 -2 6 4 18 12 27 9 8 16 30 16 47 1 27 2 29
11 14 8 -13 5 -27 -13 -58z m4519 39 c-3 -7 -5 -2 -5 12 0 14 2 19 5 13 2 -7
2 -19 0 -25z m887 -1 c20 -35 20 -47 2 -47 -8 0 -16 10 -19 23 -5 18 -13 22
-44 22 -25 0 -38 5 -40 15 -3 11 7 15 40 15 38 0 46 -3 61 -28z m-5889 13 c3
-5 1 -10 -4 -10 -6 0 -11 5 -11 10 0 6 2 10 4 10 3 0 8 -4 11 -10z m-659 -27
c-10 -10 -19 5 -10 18 6 11 8 11 12 0 2 -7 1 -15 -2 -18z m4361 5 c-3 -8 -6
-5 -6 6 -1 11 2 17 5 13 3 -3 4 -12 1 -19z m1893 7 c0 -8 -7 -15 -15 -15 -8 0
-15 7 -15 15 0 8 7 15 15 15 8 0 15 -7 15 -15z m-6485 -5 c-3 -5 -10 -10 -16
-10 -5 0 -9 5 -9 10 0 6 7 10 16 10 8 0 12 -4 9 -10z m-1125 -10 c0 -5 -4 -10
-10 -10 -5 0 -10 5 -10 10 0 6 5 10 10 10 6 0 10 -4 10 -10z m980 0 c0 -5 -5
-10 -11 -10 -5 0 -7 5 -4 10 3 6 8 10 11 10 2 0 4 -4 4 -10z m6673 -15 c-3 -8
-9 -15 -14 -15 -10 0 -12 24 -3 33 11 11 24 -3 17 -18z m-63 -5 c0 -5 -5 -10
-11 -10 -5 0 -7 5 -4 10 3 6 8 10 11 10 2 0 4 -4 4 -10z m139 -28 c-1 -16 -2
-16 -6 1 -2 9 -11 17 -19 17 -8 0 -14 5 -14 10 0 7 6 7 20 0 11 -6 19 -18 19
-28z m126 27 c10 -14 1 -21 -19 -13 -9 3 -13 10 -10 15 7 12 21 11 29 -2z
m-2102 -29 c3 -11 2 -18 -3 -15 -4 3 -10 14 -13 25 -3 11 -2 18 3 15 4 -3 10
-14 13 -25z m-5916 -5 c-7 -16 -37 -21 -37 -5 0 10 32 31 39 25 2 -2 1 -11 -2
-20z m1253 5 c0 -13 -5 -18 -15 -14 -16 7 -19 17 -8 27 12 13 23 7 23 -13z
m147 -12 c-3 -7 -5 -2 -5 12 0 14 2 19 5 13 2 -7 2 -19 0 -25z m211 14 c2 -7
-3 -12 -12 -12 -9 0 -16 7 -16 16 0 17 22 14 28 -4z m92 8 c0 -5 -5 -10 -11
-10 -5 0 -7 5 -4 10 3 6 8 10 11 10 2 0 4 -4 4 -10z m410 6 c0 -3 -4 -8 -10
-11 -5 -3 -10 -1 -10 4 0 6 5 11 10 11 6 0 10 -2 10 -4z m380 -11 c0 -8 -4
-15 -10 -15 -5 0 -10 7 -10 15 0 8 5 15 10 15 6 0 10 -7 10 -15z m-843 -37
c-3 -7 -5 -2 -5 12 0 14 2 19 5 13 2 -7 2 -19 0 -25z m-1702 12 c3 -5 1 -10
-4 -10 -6 0 -11 5 -11 10 0 6 2 10 4 10 3 0 8 -4 11 -10z m1682 -24 c-2 -6 -9
-11 -15 -10 -7 1 -21 2 -32 3 -27 2 -25 19 3 23 29 5 49 -2 44 -16z m-349 -19
c-7 -8 -18 -12 -24 -10 -6 2 -14 -6 -18 -19 -8 -33 -7 -40 4 -33 6 3 10 1 10
-4 0 -16 -16 -13 -31 5 -10 13 -10 17 1 24 7 4 10 15 7 24 -5 12 0 16 17 16
13 0 27 8 31 18 5 11 9 13 12 5 3 -7 -1 -19 -9 -26z m1339 1 c-3 -7 -5 -2 -5
12 0 14 2 19 5 13 2 -7 2 -19 0 -25z m4900 10 c-3 -8 -6 -5 -6 6 -1 11 2 17 5
13 3 -3 4 -12 1 -19z m-5447 2 c0 -5 -5 -10 -11 -10 -5 0 -7 5 -4 10 3 6 8 10
11 10 2 0 4 -4 4 -10z m223 -24 c-3 -4 -9 -2 -14 5 -13 22 -11 31 5 17 8 -7
12 -17 9 -22z m5623 18 c-5 -13 -1 -15 23 -12 26 4 28 2 20 -13 -10 -19 -2
-49 12 -49 14 0 11 18 -3 23 -7 2 -10 7 -7 11 3 3 13 4 21 1 13 -5 15 -18 9
-59 0 -5 -8 -3 -15 4 -13 10 -15 3 -19 -42 l-3 -53 -2 58 c-1 38 -6 57 -15 57
-8 0 -11 -14 -9 -45 2 -26 0 -45 -6 -45 -14 0 -21 93 -8 102 8 5 7 14 -1 28
-16 25 -17 50 -2 50 6 0 8 -7 5 -16z m110 -8 c19 -20 18 -26 -6 -26 -13 0 -20
7 -20 20 0 24 6 25 26 6z m-8059 -18 c-3 -8 -6 -5 -6 6 -1 11 2 17 5 13 3 -3
4 -12 1 -19z m1617 7 c-4 -8 -10 -15 -15 -15 -5 0 -9 7 -9 15 0 8 7 15 15 15
9 0 12 -6 9 -15z m6236 0 c0 -8 -4 -15 -9 -15 -5 0 -11 7 -15 15 -3 9 0 15 9
15 8 0 15 -7 15 -15z m-6610 -5 c0 -5 -5 -10 -11 -10 -5 0 -7 5 -4 10 3 6 8
10 11 10 2 0 4 -4 4 -10z m6928 -26 c-3 -14 -5 -12 -10 9 -3 19 -2 25 4 19 6
-6 8 -18 6 -28z m-7798 1 c0 -8 -4 -15 -10 -15 -5 0 -10 7 -10 15 0 8 5 15 10
15 6 0 10 -7 10 -15z m7440 -7 c0 -18 -2 -20 -9 -8 -6 8 -7 18 -5 22 9 14 14
9 14 -14z m-7790 -8 c0 -11 -4 -20 -10 -20 -5 0 -10 9 -10 20 0 11 5 20 10 20
6 0 10 -9 10 -20z m80 10 c0 -6 -7 -13 -15 -16 -8 -4 -12 -11 -8 -18 4 -8 2
-7 -7 1 -7 6 -10 19 -7 27 7 18 37 22 37 6z m1577 -22 c-3 -8 -6 -5 -6 6 -1
11 2 17 5 13 3 -3 4 -12 1 -19z m4281 -9 c23 -17 47 -27 53 -23 8 4 9 3 5 -4
-11 -18 4 -37 16 -21 6 10 7 7 3 -8 -7 -27 19 -73 29 -51 3 7 3 3 0 -9 -3 -13
-1 -31 5 -40 6 -10 11 -13 11 -8 1 6 7 -10 15 -35 7 -25 25 -83 40 -130 15
-47 37 -134 49 -193 12 -59 24 -106 26 -103 3 2 11 -3 19 -11 12 -13 11 -14
-8 -8 -20 6 -21 5 -14 -37 13 -72 9 -259 -6 -312 -20 -68 -76 -126 -122 -126
-181 1 -326 303 -345 715 -9 203 21 351 84 406 44 39 85 38 140 -2z m2116 15
c5 -14 4 -15 -9 -4 -17 14 -19 20 -6 20 5 0 12 -7 15 -16z m-6261 -21 c-7 -2
-19 -2 -25 0 -7 3 -2 5 12 5 14 0 19 -2 13 -5z m232 -30 c-4 -21 -7 -45 -8
-54 -1 -9 -7 -15 -14 -12 -8 3 -13 -3 -13 -17 0 -28 -24 -21 -28 9 -2 14 1 21
10 19 7 -2 12 4 10 13 -1 9 5 22 13 29 8 7 15 21 15 31 0 11 5 19 11 19 8 0 9
-12 4 -37z m5605 6 c0 -11 -4 -17 -10 -14 -5 3 -10 15 -10 26 0 11 5 17 10 14
6 -3 10 -15 10 -26z m471 18 c-1 -12 -15 -9 -19 4 -3 6 1 10 8 8 6 -3 11 -8
11 -12z m-7603 -14 c5 -10 6 -27 1 -38 -7 -19 -8 -19 -8 2 -1 12 -5 25 -11 28
-5 3 -10 10 -10 16 0 15 19 10 28 -8z m7392 -13 c0 -11 -4 -20 -10 -20 -5 0
-10 9 -10 20 0 11 5 20 10 20 6 0 10 -9 10 -20z m-7950 0 c0 -5 -4 -10 -10
-10 -5 0 -10 5 -10 10 0 6 5 10 10 10 6 0 10 -4 10 -10z m1810 -5 c0 -10 10
-15 29 -15 21 0 30 -6 35 -22 8 -32 7 -56 -2 -42 -4 6 -18 11 -32 10 -20 -1
-26 4 -28 27 -2 15 -8 27 -13 27 -5 0 -9 7 -9 15 0 8 5 15 10 15 6 0 10 -7 10
-15z m760 -15 c0 -11 -2 -20 -4 -20 -2 0 -6 9 -9 20 -3 11 -1 20 4 20 5 0 9
-9 9 -20z m92 -22 c-7 -7 -12 -8 -12 -2 0 6 3 14 7 17 3 4 9 5 12 2 2 -3 -1
-11 -7 -17z m5448 -16 c0 -13 -3 -12 -14 3 -12 16 -16 17 -30 6 -9 -7 -16 -10
-16 -6 0 4 8 14 17 21 20 14 43 2 43 -24z m-6730 24 c0 -2 -7 -7 -16 -10 -8
-3 -12 -2 -9 4 6 10 25 14 25 6z m4720 -6 c0 -5 -2 -10 -4 -10 -3 0 -8 5 -11
10 -3 6 -1 10 4 10 6 0 11 -4 11 -10z m1607 -22 c-3 -8 -6 -5 -6 6 -1 11 2 17
5 13 3 -3 4 -12 1 -19z m160 -40 c-2 -13 -4 -3 -4 22 0 25 2 35 4 23 2 -13 2
-33 0 -45z m53 52 c0 -5 -2 -10 -4 -10 -3 0 -8 5 -11 10 -3 6 -1 10 4 10 6 0
11 -4 11 -10z m-7490 -10 c0 -5 -8 -10 -17 -10 -15 0 -16 2 -3 10 19 12 20 12
20 0z m2217 -37 c-3 -10 -5 -4 -5 12 0 17 2 24 5 18 2 -7 2 -21 0 -30z m5348
0 c5 -17 2 -23 -9 -23 -11 0 -16 10 -16 32 0 34 13 29 25 -9z m-6358 5 c-3 -8
-6 -5 -6 6 -1 11 2 17 5 13 3 -3 4 -12 1 -19z m6150 -10 c-3 -8 -6 -5 -6 6 -1
11 2 17 5 13 3 -3 4 -12 1 -19z m-7701 -15 c-10 -10 -19 5 -10 18 6 11 8 11
12 0 2 -7 1 -15 -2 -18z m7451 5 c-3 -8 -6 -5 -6 6 -1 11 2 17 5 13 3 -3 4
-12 1 -19z m-5742 2 c3 -5 1 -10 -4 -10 -6 0 -11 5 -11 10 0 6 2 10 4 10 3 0
8 -4 11 -10z m115 0 c0 -5 -4 -10 -10 -10 -5 0 -10 5 -10 10 0 6 5 10 10 10 6
0 10 -4 10 -10z m6190 0 c0 -5 -7 -10 -15 -10 -8 0 -15 5 -15 10 0 6 7 10 15
10 8 0 15 -4 15 -10z m-7405 -18 c-3 -3 -11 0 -18 7 -9 10 -8 11 6 5 10 -3 15
-9 12 -12z m1482 12 c-3 -3 -12 -4 -19 -1 -8 3 -5 6 6 6 11 1 17 -2 13 -5z
m5883 -15 c0 -5 -7 -12 -15 -15 -8 -4 -15 -13 -15 -22 0 -8 -2 -13 -5 -10 -3
3 -2 19 1 36 4 20 11 29 20 25 8 -3 14 -9 14 -14z m-140 -30 c0 -6 -4 -7 -10
-4 -5 3 -10 11 -10 16 0 6 5 7 10 4 6 -3 10 -11 10 -16z m-7745 1 c3 -5 -1
-10 -9 -10 -9 0 -16 5 -16 10 0 6 4 10 9 10 6 0 13 -4 16 -10z m7935 -25 c0
-8 -7 -15 -15 -15 -16 0 -20 12 -8 23 11 12 23 8 23 -8z m-226 -11 c3 -8 2
-12 -4 -9 -6 3 -10 10 -10 16 0 14 7 11 14 -7z m-5777 -36 c-3 -7 -5 -2 -5 12
0 14 2 19 5 13 2 -7 2 -19 0 -25z m522 -62 c-5 -6 -8 12 -8 45 l2 54 7 -45 c4
-25 4 -49 -1 -54z m5558 72 c-3 -8 -6 -5 -6 6 -1 11 2 17 5 13 3 -3 4 -12 1
-19z m-77 -14 c0 -14 -3 -14 -15 -4 -8 7 -15 14 -15 16 0 2 7 4 15 4 8 0 15
-7 15 -16z m-403 -16 c-3 -8 -6 -5 -6 6 -1 11 2 17 5 13 3 -3 4 -12 1 -19z
m343 -9 c0 -6 -4 -7 -10 -4 -5 3 -10 11 -10 16 0 6 5 7 10 4 6 -3 10 -11 10
-16z m-6070 -9 c0 -5 -4 -10 -10 -10 -5 0 -10 5 -10 10 0 6 5 10 10 10 6 0 10
-4 10 -10z m305 0 c3 -5 1 -10 -4 -10 -6 0 -11 5 -11 10 0 6 2 10 4 10 3 0 8
-4 11 -10z m5782 -22 c-3 -8 -6 -5 -6 6 -1 11 2 17 5 13 3 -3 4 -12 1 -19z
m-5470 -25 c-3 -10 -5 -4 -5 12 0 17 2 24 5 18 2 -7 2 -21 0 -30z m5587 21 c3
-8 3 -26 0 -38 -6 -27 34 -53 63 -41 17 8 17 8 1 12 -21 5 -24 23 -5 23 11 0
37 -38 37 -53 0 -1 -20 -1 -45 1 -43 4 -45 3 -45 -22 0 -41 -20 -30 -21 12 0
20 -2 56 -4 80 -3 42 7 56 19 26z m-254 2 c0 -11 -19 -15 -25 -6 -3 5 1 10 9
10 9 0 16 -2 16 -4z m-6770 -18 c0 -4 -16 -8 -36 -8 -19 0 -33 4 -29 9 7 12
65 11 65 -1z m6977 -10 c-3 -8 -6 -5 -6 6 -1 11 2 17 5 13 3 -3 4 -12 1 -19z
m-187 -18 c0 -5 -4 -10 -10 -10 -5 0 -10 5 -10 10 0 6 5 10 10 10 6 0 10 -4
10 -10z m-5346 -58 c-3 -9 -8 -28 -10 -41 -5 -39 -11 -34 -11 9 0 22 4 40 9
40 5 0 8 6 7 13 -3 25 4 41 8 19 3 -13 1 -31 -3 -40z m-2326 12 c-3 -14 -5
-12 -10 9 -3 19 -2 25 4 19 6 -6 8 -18 6 -28z m239 -11 c-3 -10 -5 -4 -5 12 0
17 2 24 5 18 2 -7 2 -21 0 -30z m48 28 c3 -5 1 -12 -5 -16 -5 -3 -10 1 -10 9
0 18 6 21 15 7z m7478 -29 c-6 -4 -13 -16 -16 -27 -2 -11 -5 -1 -6 23 -1 41 0
42 16 27 10 -11 13 -19 6 -23z m-6866 -4 c-3 -8 -6 -5 -6 6 -1 11 2 17 5 13 3
-3 4 -12 1 -19z m3513 13 c0 -6 -4 -13 -10 -16 -5 -3 -10 1 -10 9 0 9 5 16 10
16 6 0 10 -4 10 -9z m-2623 -43 c-3 -7 -5 -2 -5 12 0 14 2 19 5 13 2 -7 2 -19
0 -25z m98 22 c3 -5 1 -10 -4 -10 -6 0 -11 5 -11 10 0 6 2 10 4 10 3 0 8 -4
11 -10z m5833 -13 c2 -10 -3 -17 -12 -17 -10 0 -16 9 -16 21 0 24 23 21 28 -4z
m252 8 c11 -13 8 -15 -20 -15 -28 0 -31 2 -20 15 7 8 16 15 20 15 4 0 13 -7
20 -15z m-8100 -15 c0 -5 -4 -10 -10 -10 -5 0 -10 5 -10 10 0 6 5 10 10 10 6
0 10 -4 10 -10z m44 -6 c3 -8 2 -12 -4 -9 -6 3 -10 10 -10 16 0 14 7 11 14 -7z
m956 6 c0 -5 -4 -10 -10 -10 -5 0 -10 5 -10 10 0 6 5 10 10 10 6 0 10 -4 10
-10z m3510 -10 c0 -5 -7 -10 -15 -10 -8 0 -15 5 -15 10 0 6 7 10 15 10 8 0 15
-4 15 -10z m-3050 -4 c0 -3 -4 -8 -10 -11 -5 -3 -10 -1 -10 4 0 6 5 11 10 11
6 0 10 -2 10 -4z m60 -6 c0 -5 -4 -10 -10 -10 -5 0 -10 5 -10 10 0 6 5 10 10
10 6 0 10 -4 10 -10z m4580 -18 c0 -15 -2 -15 -10 -2 -13 20 -13 33 0 25 6 -3
10 -14 10 -23z m1650 18 c0 -5 -2 -10 -4 -10 -3 0 -8 5 -11 10 -3 6 -1 10 4
10 6 0 11 -4 11 -10z m160 0 c0 -5 -4 -10 -10 -10 -5 0 -10 5 -10 10 0 6 5 10
10 10 6 0 10 -4 10 -10z m-6890 -31 c0 -5 -4 -9 -10 -9 -5 0 -10 7 -10 16 0 8
5 12 10 9 6 -3 10 -10 10 -16z m7072 -1 c-7 -7 -12 -8 -12 -2 0 14 12 26 19
19 2 -3 -1 -11 -7 -17z m-472 2 c0 -5 -7 -10 -15 -10 -8 0 -15 5 -15 10 0 6 7
10 15 10 8 0 15 -4 15 -10z m347 -12 c-3 -8 -6 -5 -6 6 -1 11 2 17 5 13 3 -3
4 -12 1 -19z m-5486 -10 c11 -21 11 -22 -4 -9 -10 7 -17 17 -17 22 0 15 9 10
21 -13z m5339 18 c0 -3 -4 -8 -10 -11 -5 -3 -10 -1 -10 4 0 6 5 11 10 11 6 0
10 -2 10 -4z m134 -61 c9 -30 22 -55 27 -55 6 0 7 -4 4 -10 -10 -16 -25 -12
-25 8 0 9 -9 34 -20 55 -21 39 -25 57 -12 57 5 0 16 -25 26 -55z m-74 35 c0
-5 -5 -10 -11 -10 -5 0 -7 5 -4 10 3 6 8 10 11 10 2 0 4 -4 4 -10z m123 -15
c-3 -8 0 -15 6 -15 6 0 11 -13 11 -30 0 -41 -16 -38 -30 5 -6 19 -17 35 -23
35 -6 0 -2 6 8 14 23 16 37 12 28 -9z m77 10 c0 -9 -9 -15 -22 -14 -17 1 -19
2 -5 6 9 2 17 9 17 14 0 5 2 9 5 9 3 0 5 -7 5 -15z m-7980 -17 c0 -18 -2 -20
-9 -8 -6 8 -7 18 -5 22 9 14 14 9 14 -14z m1390 -6 c0 -15 -2 -15 -10 -2 -13
20 -13 33 0 25 6 -3 10 -14 10 -23z m-1190 8 c0 -5 -4 -10 -10 -10 -5 0 -10 5
-10 10 0 6 5 10 10 10 6 0 10 -4 10 -10z m2220 -31 c0 -27 -17 -23 -22 5 -4
17 -1 23 9 19 7 -3 13 -14 13 -24z m-995 1 c3 -5 1 -10 -4 -10 -6 0 -11 5 -11
10 0 6 2 10 4 10 3 0 8 -4 11 -10z m-403 -25 c0 -5 -5 -11 -11 -13 -6 -2 -11
4 -11 13 0 9 5 15 11 13 6 -2 11 -8 11 -13z m6806 -3 c2 -7 -3 -12 -12 -12 -9
0 -16 7 -16 16 0 17 22 14 28 -4z m-7653 -2 c3 -5 -1 -10 -10 -10 -9 0 -13 5
-10 10 3 6 8 10 10 10 2 0 7 -4 10 -10z m7565 -30 c0 -11 -4 -20 -10 -20 -5 0
-10 9 -10 20 0 11 5 20 10 20 6 0 10 -9 10 -20z m-1510 -9 c0 -5 -7 -12 -16
-15 -14 -5 -15 -4 -4 9 14 17 20 19 20 6z m-5009 -29 c12 -31 -3 -28 -18 4 -8
17 -8 24 -1 22 6 -2 15 -14 19 -26z m5134 16 c14 -6 25 -15 25 -20 0 -7 -31 8
-59 29 -10 7 10 2 34 -9z m1432 -30 c-3 -8 -6 -5 -6 6 -1 11 2 17 5 13 3 -3 4
-12 1 -19z m-5394 -13 c-7 -21 -13 -19 -13 6 0 11 4 18 10 14 5 -3 7 -12 3
-20z m-303 5 c8 -5 11 -10 5 -10 -5 0 -17 5 -25 10 -8 5 -10 10 -5 10 6 0 17
-5 25 -10z m-1919 -43 c-6 -6 -14 -7 -18 -2 -5 4 -2 10 5 12 6 3 13 12 13 21
1 14 2 14 6 -2 3 -10 0 -23 -6 -29z m859 33 c0 -5 -7 -10 -15 -10 -8 0 -15 5
-15 10 0 6 7 10 15 10 8 0 15 -4 15 -10z m6651 -33 c-8 -8 -11 -3 -11 19 1 25
2 27 11 11 8 -14 8 -22 0 -30z m-1524 11 c-3 -8 -6 -5 -6 6 -1 11 2 17 5 13 3
-3 4 -12 1 -19z m-4866 -13 c5 4 9 1 9 -4 0 -6 -4 -11 -8 -11 -12 0 -32 22
-32 35 0 5 5 2 11 -8 6 -9 14 -15 20 -12z m6289 10 c0 -8 -4 -15 -10 -15 -5 0
-10 7 -10 15 0 8 5 15 10 15 6 0 10 -7 10 -15z m-1440 -20 c0 -8 -2 -15 -4
-15 -2 0 -6 7 -10 15 -3 8 -1 15 4 15 6 0 10 -7 10 -15z m-5275 -5 c3 -5 1
-10 -4 -10 -6 0 -11 5 -11 10 0 6 2 10 4 10 3 0 8 -4 11 -10z m6785 -11 c0 -5
-4 -9 -10 -9 -5 0 -10 7 -10 16 0 8 5 12 10 9 6 -3 10 -10 10 -16z m-7393 -36
c-3 -10 -5 -2 -5 17 0 19 2 27 5 18 2 -10 2 -26 0 -35z m6167 18 c-7 -8 -35 9
-29 19 4 6 11 5 20 -3 7 -6 11 -14 9 -16z m1176 19 c0 -5 -4 -10 -10 -10 -5 0
-10 5 -10 10 0 6 5 10 10 10 6 0 10 -4 10 -10z m200 0 c0 -5 -4 -10 -10 -10
-5 0 -10 5 -10 10 0 6 5 10 10 10 6 0 10 -4 10 -10z m-6183 -32 c-3 -8 -6 -5
-6 6 -1 11 2 17 5 13 3 -3 4 -12 1 -19z m5893 -23 c0 -40 -2 -45 -22 -44 -13
0 -17 3 -10 6 7 2 12 22 12 44 0 21 5 39 10 39 6 0 10 -20 10 -45z m-5054 -27
c6 -10 4 -10 -9 1 -9 7 -17 25 -16 40 l1 26 8 -27 c4 -14 11 -32 16 -40z
m-1536 48 c0 -3 -4 -8 -10 -11 -5 -3 -10 -1 -10 4 0 6 5 11 10 11 6 0 10 -2
10 -4z m5550 -26 c6 -11 8 -20 6 -20 -3 0 -10 9 -16 20 -6 11 -8 20 -6 20 3 0
10 -9 16 -20z m1150 10 c0 -5 -4 -10 -10 -10 -5 0 -10 5 -10 10 0 6 5 10 10
10 6 0 10 -4 10 -10z m-514 -18 c-21 -2 -42 0 -47 5 -4 4 13 6 39 3 l47 -5
-39 -3z m-93 1 c-7 -2 -19 -2 -25 0 -7 3 -2 5 12 5 14 0 19 -2 13 -5z m274 -9
c-3 -3 -12 -4 -19 -1 -8 3 -5 6 6 6 11 1 17 -2 13 -5z m-7042 -14 c3 -5 1 -10
-4 -10 -6 0 -11 5 -11 10 0 6 2 10 4 10 3 0 8 -4 11 -10z m7112 4 c-3 -3 -12
-4 -19 -1 -8 3 -5 6 6 6 11 1 17 -2 13 -5z m58 -4 c-3 -5 -12 -7 -20 -3 -21 7
-19 13 6 13 11 0 18 -4 14 -10z m175 -5 c7 -9 30 -15 54 -16 22 0 64 -9 91
-19 60 -22 35 -26 -44 -6 -31 8 -82 17 -114 21 -31 3 -55 10 -52 14 2 5 17 6
32 4 22 -4 25 -2 13 6 -8 6 -10 11 -4 11 6 0 17 -7 24 -15z m220 8 c-1 -14
-27 -43 -33 -37 -7 7 14 44 25 44 5 0 8 -3 8 -7z m-6513 -35 c-3 -8 -6 -5 -6
6 -1 11 2 17 5 13 3 -3 4 -12 1 -19z m5593 -6 c0 -8 -38 -52 -45 -52 -2 0 3
14 11 30 14 28 34 41 34 22z m-4740 -18 c0 -8 -4 -12 -10 -9 -5 3 -10 10 -10
16 0 5 5 9 10 9 6 0 10 -7 10 -16z m293 -14 c3 -11 1 -18 -4 -14 -5 3 -9 12
-9 20 0 20 7 17 13 -6z m4034 -1 c-4 -15 -2 -19 9 -15 23 9 15 -7 -15 -31
l-28 -22 16 44 c16 46 28 61 18 24z m-5572 1 c3 -5 1 -10 -4 -10 -6 0 -11 5
-11 10 0 6 2 10 4 10 3 0 8 -4 11 -10z m375 0 c0 -5 -5 -10 -11 -10 -5 0 -7 5
-4 10 3 6 8 10 11 10 2 0 4 -4 4 -10z m-84 -37 c-11 -11 -19 6 -11 24 8 17 8
17 12 0 3 -10 2 -21 -1 -24z m149 26 c11 -16 1 -19 -13 -3 -7 8 -8 14 -3 14 5
0 13 -5 16 -11z m-310 -10 c11 -17 -1 -21 -15 -4 -8 9 -8 15 -2 15 6 0 14 -5
17 -11z m5510 1 c3 -6 -1 -7 -9 -4 -18 7 -21 14 -7 14 6 0 13 -4 16 -10z m280
-19 c-3 -6 -11 -11 -16 -11 -5 0 -4 6 3 14 14 16 24 13 13 -3z m-4505 -6 c0
-8 -4 -15 -10 -15 -5 0 -10 7 -10 15 0 8 5 15 10 15 6 0 10 -7 10 -15z m4336
-13 c-6 -6 -56 10 -56 18 0 5 13 3 30 -3 16 -6 28 -13 26 -15z m-4387 -9 c0
-25 -1 -26 -9 -8 -12 27 -12 35 0 35 6 0 10 -12 9 -27z m-759 7 c0 -5 -4 -10
-10 -10 -5 0 -10 5 -10 10 0 6 5 10 10 10 6 0 10 -4 10 -10z m170 -9 c0 -29
-15 -33 -16 -5 -1 13 2 24 7 24 5 0 9 -9 9 -19z m-266 -6 c3 -9 0 -15 -9 -15
-9 0 -12 6 -9 15 4 8 7 15 9 15 2 0 5 -7 9 -15z m5299 8 c-7 -2 -19 -2 -25 0
-7 3 -2 5 12 5 14 0 19 -2 13 -5z m-6038 -13 c3 -5 1 -10 -4 -10 -6 0 -11 5
-11 10 0 6 2 10 4 10 3 0 8 -4 11 -10z m690 0 c3 -5 1 -10 -4 -10 -6 0 -11 5
-11 10 0 6 2 10 4 10 3 0 8 -4 11 -10z m-728 -52 c-3 -8 -6 -5 -6 6 -1 11 2
17 5 13 3 -3 4 -12 1 -19z m1053 12 c0 -5 -4 -10 -10 -10 -5 0 -10 5 -10 10 0
6 5 10 10 10 6 0 10 -4 10 -10z m-1090 -26 c0 -14 -4 -23 -10 -19 -5 3 -10 15
-10 26 0 10 5 19 10 19 6 0 10 -12 10 -26z m-173 -6 c-3 -8 -6 -5 -6 6 -1 11
2 17 5 13 3 -3 4 -12 1 -19z m770 6 c-3 -3 -12 -4 -19 -1 -8 3 -5 6 6 6 11 1
17 -2 13 -5z m-1447 -64 c0 -5 -7 -10 -16 -10 -8 0 -12 5 -9 10 3 6 10 10 16
10 5 0 9 -4 9 -10z m45 -20 c3 -5 1 -10 -4 -10 -6 0 -11 5 -11 10 0 6 2 10 4
10 3 0 8 -4 11 -10z m2732 -72 c-3 -8 -6 -5 -6 6 -1 11 2 17 5 13 3 -3 4 -12
1 -19z m-2607 2 c0 -5 -2 -10 -4 -10 -3 0 -8 5 -11 10 -3 6 -1 10 4 10 6 0 11
-4 11 -10z m660 0 c0 -5 -4 -10 -10 -10 -5 0 -10 5 -10 10 0 6 5 10 10 10 6 0
10 -4 10 -10z m4522 -12 c22 -35 31 -78 16 -78 -13 1 -48 65 -48 88 0 19 17
14 32 -10z m-4791 -51 c-1 -12 -15 -9 -19 4 -3 6 1 10 8 8 6 -3 11 -8 11 -12z
m-546 -7 c3 -5 3 -15 -1 -21 -6 -11 -23 6 -24 24 0 10 18 9 25 -3z m315 -10
c0 -5 -9 -6 -20 -3 -11 3 -20 9 -20 13 0 5 9 6 20 3 11 -3 20 -9 20 -13z m880
10 c0 -5 -4 -10 -10 -10 -5 0 -10 5 -10 10 0 6 5 10 10 10 6 0 10 -4 10 -10z
m4046 -25 c40 -31 68 -86 60 -119 -4 -16 0 -29 13 -40 18 -17 20 -16 26 3 3
12 12 21 18 21 15 0 38 -35 30 -44 -13 -12 -22 -5 -16 12 6 14 4 15 -9 4 -9
-7 -14 -21 -11 -31 3 -12 -8 -27 -34 -46 -21 -16 -42 -34 -48 -41 -76 -86
-265 -75 -265 16 0 14 53 1 63 -17 5 -7 12 -11 18 -8 13 9 11 35 -2 35 -7 0
-20 10 -30 21 -10 12 -25 19 -33 16 -8 -3 -17 1 -20 9 -3 8 -1 14 5 14 6 0 9
13 7 29 -1 16 4 36 11 45 11 14 11 16 -3 16 -11 0 -18 -13 -23 -42 l-7 -43 -8
38 c-10 49 13 91 46 81 18 -6 19 -5 7 10 -7 9 -20 16 -27 16 -18 0 -18 14 0
29 12 10 18 7 31 -18 8 -17 21 -31 29 -31 7 0 25 23 41 51 26 49 29 51 62 46
19 -4 50 -18 69 -32z m-4656 6 c0 -6 -4 -13 -10 -16 -5 -3 -10 1 -10 9 0 9 5
16 10 16 6 0 10 -4 10 -9z m-253 -43 c-3 -8 -6 -5 -6 6 -1 11 2 17 5 13 3 -3
4 -12 1 -19z m273 -71 c0 -4 -7 -2 -15 7 -8 8 -15 21 -15 28 1 14 30 -20 30
-35z m-255 24 c3 -5 1 -12 -5 -16 -5 -3 -10 1 -10 9 0 18 6 21 15 7z m1625
-15 c0 -3 -4 -8 -10 -11 -5 -3 -10 -1 -10 4 0 6 5 11 10 11 6 0 10 -2 10 -4z
m650 -6 c0 -5 -4 -10 -10 -10 -5 0 -10 5 -10 10 0 6 5 10 10 10 6 0 10 -4 10
-10z m-1855 -20 c3 -5 1 -10 -4 -10 -6 0 -11 5 -11 10 0 6 2 10 4 10 3 0 8 -4
11 -10z m1915 -45 c0 -8 -4 -15 -10 -15 -5 0 -7 7 -4 15 4 8 8 15 10 15 2 0 4
-7 4 -15z m-1250 -165 c0 -5 -2 -10 -4 -10 -3 0 -8 5 -11 10 -3 6 -1 10 4 10
6 0 11 -4 11 -10z m150 -155 c0 -5 -5 -3 -10 5 -5 8 -10 20 -10 25 0 6 5 3 10
-5 5 -8 10 -19 10 -25z m-420 -75 c0 -5 -5 -10 -11 -10 -5 0 -7 5 -4 10 3 6 8
10 11 10 2 0 4 -4 4 -10z m-543 -6 c-3 -3 -12 -4 -19 -1 -8 3 -5 6 6 6 11 1
17 -2 13 -5z m4163 -104 c38 -33 30 -41 -10 -10 -14 11 -31 20 -37 20 -7 0
-13 5 -13 10 0 18 25 10 60 -20z m-935 10 c3 -6 -1 -7 -9 -4 -18 7 -21 14 -7
14 6 0 13 -4 16 -10z m-3865 -36 c0 -8 -4 -12 -10 -9 -5 3 -10 13 -10 21 0 8
5 12 10 9 6 -3 10 -13 10 -21z m316 -8 c14 -15 20 -46 8 -46 -10 0 -33 33 -34
48 0 16 8 15 26 -2z m4593 -50 c14 -17 -3 -61 -20 -50 -7 4 -6 10 1 18 7 10 2
21 -20 44 -17 18 -30 34 -30 38 0 7 53 -31 69 -50z m-4436 29 c4 -8 2 -17 -3
-20 -6 -4 -10 -4 -10 -1 0 2 -3 11 -6 20 -3 9 -2 16 4 16 5 0 12 -7 15 -15z
m1207 -11 c0 -2 -7 -4 -15 -4 -8 0 -15 4 -15 10 0 5 7 7 15 4 8 -4 15 -8 15
-10z m-1333 -61 c-3 -10 -5 -4 -5 12 0 17 2 24 5 18 2 -7 2 -21 0 -30z m4397
23 c-3 -7 -16 -18 -30 -24 -22 -11 -29 -27 -25 -59 1 -7 -2 -13 -8 -13 -19 0
-1 65 24 88 29 25 47 29 39 8z m-664 -26 c0 -5 -4 -10 -10 -10 -5 0 -10 5 -10
10 0 6 5 10 10 10 6 0 10 -4 10 -10z m802 -59 c82 -55 118 -87 118 -103 0 -6
-10 0 -23 13 -51 52 -153 119 -181 119 -10 0 -14 5 -11 10 10 17 22 12 97 -39z
m792 4 c-4 -8 -8 -15 -10 -15 -2 0 -4 7 -4 15 0 8 4 15 10 15 5 0 7 -7 4 -15z
m-2420 -66 c-4 -8 -11 -3 -20 12 -21 37 -16 55 7 25 11 -14 17 -31 13 -37z
m1505 16 c24 -19 40 -35 34 -35 -10 0 -93 59 -93 66 0 11 19 1 59 -31z m141
-55 c0 -5 -9 -14 -20 -20 -22 -12 -27 -1 -8 18 14 14 28 16 28 2z m21 -60 l24
-20 -32 16 c-33 15 -41 24 -24 24 5 0 19 -9 32 -20z m65 -36 c18 -14 18 -14
-6 -3 -31 14 -36 19 -24 19 6 0 19 -7 30 -16z m1433 -40 c-2 -31 1 -48 11 -55
13 -8 13 -11 -2 -19 -9 -6 -15 -16 -13 -23 7 -19 -90 -77 -130 -77 -19 0 -35
3 -35 6 0 5 79 123 126 187 30 42 46 34 43 -19z m-5155 -13 c-5 -6 -34 20 -34
30 0 5 8 1 18 -8 10 -10 17 -20 16 -22z m4142 24 c9 -8 11 -15 6 -15 -5 0 -15
7 -22 15 -7 8 -9 15 -6 15 4 0 14 -7 22 -15z m-408 -42 c-27 -41 -98 -119 -98
-108 0 4 25 36 55 71 30 36 55 70 55 76 0 6 3 8 6 5 4 -4 -4 -24 -18 -44z
m-4908 -73 c0 -5 -5 -10 -11 -10 -5 0 -7 5 -4 10 3 6 8 10 11 10 2 0 4 -4 4
-10z m1326 -27 c-7 -7 -26 7 -26 19 0 6 6 6 15 -2 9 -7 13 -15 11 -17z m-852
1 c9 -24 7 -28 -9 -14 -17 14 -20 30 -6 30 5 0 12 -7 15 -16z m786 0 c0 -2 -9
-4 -20 -4 -11 0 -20 4 -20 9 0 5 9 7 20 4 11 -3 20 -7 20 -9z m-830 -32 c0 -7
-4 -10 -10 -7 -5 3 -10 16 -10 28 0 18 2 19 10 7 5 -8 10 -21 10 -28z m915 8
c3 -5 -3 -10 -15 -10 -12 0 -18 5 -15 10 3 6 10 10 15 10 5 0 12 -4 15 -10z
m3921 -48 c-8 -16 -22 -35 -31 -42 -15 -12 -15 -11 -4 16 16 37 29 54 40 54 5
0 3 -13 -5 -28z m1564 18 c0 -5 -5 -10 -11 -10 -5 0 -7 5 -4 10 3 6 8 10 11
10 2 0 4 -4 4 -10z m-5693 -6 c-3 -3 -12 -4 -19 -1 -8 3 -5 6 6 6 11 1 17 -2
13 -5z m-484 -11 c-7 -2 -21 -2 -30 0 -10 3 -4 5 12 5 17 0 24 -2 18 -5z m354
1 c-3 -3 -12 -4 -19 -1 -8 3 -5 6 6 6 11 1 17 -2 13 -5z m6060 -26 c-3 -7 -5
-2 -5 12 0 14 2 19 5 13 2 -7 2 -19 0 -25z m-6154 15 c-7 -2 -19 -2 -25 0 -7
3 -2 5 12 5 14 0 19 -2 13 -5z m5223 -10 c-7 -36 -22 -61 -53 -87 -37 -31 -49
-61 -33 -80 8 -11 4 -19 -20 -37 -77 -59 -83 -66 -75 -78 4 -7 17 -10 28 -7
26 6 117 -13 117 -25 0 -5 -5 -9 -11 -9 -8 0 -8 -5 1 -15 11 -13 8 -15 -16
-15 -24 -1 -27 -3 -14 -13 19 -15 25 -47 9 -47 -6 0 -8 -7 -5 -15 3 -9 -1 -18
-9 -21 -8 -4 -15 -12 -15 -20 0 -8 -5 -14 -11 -14 -8 0 -8 -4 0 -14 7 -8 8
-17 3 -20 -6 -3 -13 -18 -17 -33 -3 -15 -15 -45 -26 -67 -10 -22 -16 -49 -13
-59 5 -16 2 -18 -18 -13 -12 3 -17 3 -10 0 21 -10 15 -62 -9 -69 -15 -5 -18
-9 -9 -15 8 -5 8 -10 2 -14 -7 -4 -6 -14 1 -30 8 -17 14 -21 20 -13 5 9 10 7
18 -6 6 -9 14 -15 20 -12 16 11 10 -7 -8 -21 -17 -13 -17 -14 4 -20 13 -3 20
-10 17 -15 -2 -5 2 -19 11 -33 11 -16 13 -26 6 -31 -6 -3 -11 -11 -11 -16 0
-6 4 -8 9 -5 4 3 17 -1 27 -9 15 -11 16 -15 4 -15 -12 0 -11 -4 4 -15 11 -8
19 -28 20 -45 1 -18 6 -30 15 -30 11 0 11 -3 1 -15 -10 -12 -9 -15 4 -15 10 0
15 -4 11 -9 -3 -5 -1 -12 5 -16 6 -4 8 -10 5 -15 -3 -4 2 -11 11 -14 9 -4 14
-13 10 -21 -3 -8 -1 -15 4 -15 6 0 10 -5 10 -11 0 -6 11 -24 25 -41 14 -16 25
-36 25 -44 0 -8 7 -14 15 -14 8 0 24 -9 35 -20 15 -15 30 -19 55 -17 20 3 38
0 41 -5 3 -5 12 -7 20 -4 8 3 17 -1 21 -10 3 -8 12 -13 19 -10 25 10 18 -3
-37 -65 -30 -33 -60 -36 -168 -18 -69 12 -151 45 -151 60 0 5 -4 9 -9 9 -34 0
-190 212 -272 370 -24 47 -58 106 -77 133 -44 65 -81 147 -88 200 -9 64 26
142 116 254 14 17 45 57 70 88 25 31 61 75 81 98 19 23 50 62 69 87 33 44 91
104 107 111 4 2 23 23 41 47 35 44 54 54 48 25z m-6069 -59 c-3 -3 -12 -4 -19
-1 -8 3 -5 6 6 6 11 1 17 -2 13 -5z m220 -10 c-3 -3 -12 -4 -19 -1 -8 3 -5 6
6 6 11 1 17 -2 13 -5z m4856 -29 c-3 -9 -8 -14 -10 -11 -3 3 -2 9 2 15 9 16
15 13 8 -4z m-571 -43 c7 -7 22 -12 34 -12 13 0 29 -7 38 -15 8 -8 20 -15 26
-15 7 0 10 -8 7 -20 -4 -16 -1 -19 17 -14 19 5 21 1 21 -35 0 -23 -3 -41 -7
-41 -5 0 -8 -7 -8 -16 0 -11 -6 -15 -20 -11 -15 4 -20 0 -21 -16 -1 -17 -2
-18 -6 -4 -6 22 -32 22 -49 0 -7 -10 -16 -14 -20 -10 -5 4 -2 12 6 18 13 8 13
11 -3 20 -9 6 -15 14 -12 19 3 5 -7 5 -23 0 -33 -9 -84 -2 -77 10 3 5 1 11 -4
14 -5 3 -12 -4 -16 -17 -7 -22 -8 -22 -12 -1 -4 19 -8 20 -48 13 -24 -4 -53
-6 -64 -4 -11 2 -34 0 -51 -5 -23 -7 -30 -5 -30 6 0 8 10 14 25 14 14 0 25 5
25 10 0 6 -9 10 -20 10 -22 0 -23 1 -14 24 9 22 30 20 54 -6 11 -12 20 -16 20
-10 0 7 9 12 19 12 11 0 26 7 34 15 8 8 17 11 21 8 3 -4 6 -1 6 5 0 17 32 53
54 61 28 11 84 7 98 -7z m513 -49 c-15 -26 -35 -57 -46 -69 -10 -11 -19 -25
-19 -31 0 -7 -7 -19 -16 -27 -16 -16 -8 -22 11 -8 6 4 32 40 59 79 56 85 82
108 42 37 -63 -112 -119 -165 -148 -136 -12 12 23 76 47 85 8 4 21 20 31 38 9
18 25 41 35 52 10 12 19 25 19 31 0 5 3 7 6 4 3 -4 -6 -28 -21 -55z m-4850 -3
c-3 -5 -10 -10 -16 -10 -5 0 -9 5 -9 10 0 6 7 10 16 10 8 0 12 -4 9 -10z m72
-16 c-3 -3 -12 -4 -19 -1 -8 3 -5 6 6 6 11 1 17 -2 13 -5z m4060 0 c-3 -3 -12
-4 -19 -1 -8 3 -5 6 6 6 11 1 17 -2 13 -5z m-167 -45 c0 -5 -4 -9 -10 -9 -5 0
-10 7 -10 16 0 8 5 12 10 9 6 -3 10 -10 10 -16z m345 -197 c-3 -4 -10 0 -14 7
-5 7 -14 10 -20 7 -6 -4 -11 -3 -11 3 0 15 45 18 48 3 2 -8 1 -16 -3 -20z
m-155 4 c0 -2 -7 -7 -16 -10 -8 -3 -12 -2 -9 4 6 10 25 14 25 6z m100 0 c0 -3
-4 -8 -10 -11 -5 -3 -10 -1 -10 4 0 6 5 11 10 11 6 0 10 -2 10 -4z m1050 -32
c0 -8 -4 -12 -10 -9 -5 3 -10 10 -10 16 0 5 5 9 10 9 6 0 10 -7 10 -16z
m-1162 -21 c-2 -9 4 -17 14 -18 9 -2 24 -8 35 -14 16 -11 15 -11 -7 -6 l-25 6
25 -20 c14 -11 22 -23 18 -26 -10 -10 -48 14 -48 30 0 8 -5 15 -10 15 -6 0
-10 -6 -8 -14 2 -8 -1 -14 -7 -13 -10 2 -16 64 -8 80 7 13 24 -4 21 -20z m677
-7 c113 -33 132 -43 139 -72 4 -13 11 -24 16 -24 14 0 12 -44 -2 -58 -28 -28
-68 -2 -68 45 -1 43 -10 45 -138 32 -67 -7 -119 -15 -117 -18 2 -3 -27 -6 -63
-5 -37 1 -74 -3 -82 -9 -8 -6 -4 1 10 15 46 47 174 129 195 125 11 -3 61 -17
110 -31z m-575 -26 c13 -8 13 -10 -2 -10 -9 0 -20 5 -23 10 -8 13 5 13 25 0z
m1001 -107 c0 -11 3 -13 6 -5 9 22 23 13 23 -14 0 -24 -23 -53 -42 -54 -10 0
-21 67 -13 79 10 17 25 13 26 -6z m-771 3 c0 -2 -8 -10 -17 -17 -16 -13 -17
-12 -4 4 13 16 21 21 21 13z m-62 -42 c-9 -9 -22 -14 -30 -11 -8 3 -4 8 12 15
35 15 37 14 18 -4z m552 -21 c0 -2 -8 -15 -17 -29 -15 -24 -15 -28 0 -53 15
-25 15 -30 1 -49 -22 -31 -40 -27 -67 15 -27 42 -25 72 8 107 16 17 29 22 49
19 14 -3 26 -7 26 -10z m-1160 -17 c0 -2 -7 -7 -16 -10 -8 -3 -12 -2 -9 4 6
10 25 14 25 6z m465 -16 c3 -5 -3 -10 -15 -10 -12 0 -18 5 -15 10 3 6 10 10
15 10 5 0 12 -4 15 -10z m-135 -14 c0 -3 -4 -8 -10 -11 -5 -3 -10 -1 -10 4 0
6 5 11 10 11 6 0 10 -2 10 -4z m696 -70 c-17 -26 -36 -35 -36 -16 0 6 6 10 14
10 17 0 29 27 20 43 -5 9 -3 8 6 0 11 -10 10 -17 -4 -37z m1329 34 c-3 -5 -10
-10 -16 -10 -5 0 -9 5 -9 10 0 6 7 10 16 10 8 0 12 -4 9 -10z m-975 -34 c0 -9
8 -12 25 -8 22 4 25 1 25 -27 0 -17 -7 -48 -16 -69 l-15 -37 -30 33 c-31 34
-39 88 -17 110 16 16 28 15 28 -2z m860 -2 c0 -2 -7 -4 -15 -4 -8 0 -15 4 -15
10 0 5 7 7 15 4 8 -4 15 -8 15 -10z m-1253 -59 c-7 -13 -14 -20 -15 -14 -2 5
2 16 8 24 18 21 20 18 7 -10z m130 -33 c-26 -27 -26 -28 -7 -45 17 -14 18 -20
8 -42 -12 -27 -45 -34 -66 -13 -33 33 -1 134 45 140 43 6 50 -9 20 -40z m-162
-42 c-9 -41 -17 -33 -9 9 4 17 9 30 11 27 3 -2 2 -19 -2 -36z m388 -37 c-19
-7 -16 -41 3 -45 11 -2 18 -16 20 -42 3 -31 0 -39 -16 -43 -11 -3 -17 -10 -13
-16 4 -7 0 -8 -11 -4 -10 4 -19 7 -22 7 -2 0 -11 14 -20 31 -26 50 4 120 50
118 12 0 15 -3 9 -6z m34 -25 c-3 -7 -5 -2 -5 12 0 14 2 19 5 13 2 -7 2 -19 0
-25z m-273 -55 c-10 -7 -21 -13 -26 -13 -14 0 -9 -27 7 -40 19 -16 19 -37 -1
-57 -11 -11 -12 -19 -5 -26 16 -16 14 -27 -4 -27 -23 0 -29 -27 -12 -53 11
-17 12 -28 5 -41 -8 -13 -7 -21 3 -26 10 -7 7 -13 -12 -29 -21 -17 -22 -22
-11 -40 7 -12 10 -32 6 -46 -8 -33 15 -41 56 -20 24 12 29 20 21 28 -6 6 -11
26 -11 45 0 46 49 97 85 88 29 -7 29 -7 10 30 -19 37 -19 67 0 104 19 36 69
50 94 25 15 -15 15 -17 -1 -29 -10 -7 -18 -30 -20 -57 -3 -38 -6 -44 -25 -43
-27 1 -30 -11 -5 -25 14 -8 14 -10 2 -11 -9 0 -22 -18 -31 -43 -14 -36 -14
-45 -2 -63 14 -21 9 -54 -9 -54 -24 0 -47 -46 -63 -124 -5 -24 -10 -27 -31
-23 -13 2 -27 0 -31 -6 -4 -6 -1 -7 6 -2 10 5 11 -4 5 -41 -8 -62 -11 -66 -37
-58 -20 6 -20 5 -7 -11 12 -15 11 -19 -10 -35 -31 -24 -55 -11 -87 45 -19 34
-21 50 -17 119 3 45 11 90 19 102 11 17 12 30 5 55 -13 44 -14 41 15 83 23 33
24 39 10 52 -33 33 -10 107 39 124 l30 11 -30 18 c-60 37 -46 121 23 138 47
12 76 -3 47 -24z m-4117 -19 c-3 -3 -12 -4 -19 -1 -8 3 -5 6 6 6 11 1 17 -2
13 -5z m3916 -36 c-3 -16 -10 -28 -15 -28 -6 0 -7 7 -4 16 3 9 6 25 6 37 0 13
4 17 9 12 5 -6 7 -22 4 -37z m-36 -40 c-3 -7 -5 -2 -5 12 0 14 2 19 5 13 2 -7
2 -19 0 -25z m-4810 -50 c-3 -8 -6 -5 -6 6 -1 11 2 17 5 13 3 -3 4 -12 1 -19z
m-187 2 c0 -5 -4 -10 -10 -10 -5 0 -10 5 -10 10 0 6 5 10 10 10 6 0 10 -4 10
-10z m762 -58 c6 -7 8 -16 4 -19 -11 -12 -26 19 -24 52 1 27 1 28 5 5 3 -14
10 -31 15 -38z m-52 27 c0 -5 -4 -9 -10 -9 -5 0 -10 7 -10 16 0 8 5 12 10 9 6
-3 10 -10 10 -16z m200 -4 c0 -9 -6 -12 -15 -9 -8 4 -12 10 -9 15 8 14 24 10
24 -6z m4090 -20 c0 -5 -5 -3 -10 5 -5 8 -10 20 -10 25 0 6 5 3 10 -5 5 -8 10
-19 10 -25z m2657 9 c-3 -3 -12 -4 -19 -1 -8 3 -5 6 6 6 11 1 17 -2 13 -5z
m-2682 -43 c-4 -17 -10 -31 -15 -31 -4 0 -3 16 3 35 13 42 22 39 12 -4z
m-4095 14 c0 -8 -2 -15 -4 -15 -2 0 -6 7 -10 15 -3 8 -1 15 4 15 6 0 10 -7 10
-15z m4033 -5 c-3 -12 -8 -19 -11 -16 -5 6 5 36 12 36 2 0 2 -9 -1 -20z
m-4873 -40 c0 -5 -5 -10 -11 -10 -5 0 -7 5 -4 10 3 6 8 10 11 10 2 0 4 -4 4
-10z m817 -22 c-3 -8 -6 -5 -6 6 -1 11 2 17 5 13 3 -3 4 -12 1 -19z m408 12
c3 -6 -1 -7 -9 -4 -18 7 -21 14 -7 14 6 0 13 -4 16 -10z m3682 -42 c-3 -8 -6
-5 -6 6 -1 11 2 17 5 13 3 -3 4 -12 1 -19z m-4437 -68 c0 -5 -5 -10 -11 -10
-5 0 -7 5 -4 10 3 6 8 10 11 10 2 0 4 -4 4 -10z m40 -90 c0 -5 -4 -10 -9 -10
-6 0 -13 5 -16 10 -3 6 1 10 9 10 9 0 16 -4 16 -10z m-353 -37 c-3 -10 -5 -4
-5 12 0 17 2 24 5 18 2 -7 2 -21 0 -30z m723 -1 c0 -15 -2 -15 -10 -2 -13 20
-13 33 0 25 6 -3 10 -14 10 -23z m-503 2 c-3 -3 -12 -4 -19 -1 -8 3 -5 6 6 6
11 1 17 -2 13 -5z m613 -4 c0 -5 -2 -10 -4 -10 -3 0 -8 5 -11 10 -3 6 -1 10 4
10 6 0 11 -4 11 -10z m-943 -62 c-3 -8 -6 -5 -6 6 -1 11 2 17 5 13 3 -3 4 -12
1 -19z m933 -2 c0 -3 -4 -8 -10 -11 -5 -3 -10 -1 -10 4 0 6 5 11 10 11 6 0 10
-2 10 -4z m3917 -53 c-3 -10 -5 -4 -5 12 0 17 2 24 5 18 2 -7 2 -21 0 -30z
m-4077 -43 c0 -5 -2 -10 -4 -10 -3 0 -8 5 -11 10 -3 6 -1 10 4 10 6 0 11 -4
11 -10z m3887 -62 c-3 -8 -6 -5 -6 6 -1 11 2 17 5 13 3 -3 4 -12 1 -19z
m-4427 -78 c0 -5 -5 -10 -11 -10 -5 0 -7 5 -4 10 3 6 8 10 11 10 2 0 4 -4 4
-10z m4894 -45 c-4 -8 -10 -15 -15 -15 -4 0 -6 7 -3 15 4 8 10 15 15 15 4 0 6
-7 3 -15z m2356 -85 c0 -5 -4 -10 -10 -10 -5 0 -10 5 -10 10 0 6 5 10 10 10 6
0 10 -4 10 -10z"/>
<path d="M1760 5735 c0 -8 7 -15 16 -15 14 0 14 3 4 15 -7 8 -14 15 -16 15 -2
0 -4 -7 -4 -15z"/>
<path d="M5480 5662 c0 -5 7 -15 15 -22 8 -7 15 -8 15 -2 0 5 -7 15 -15 22 -8
7 -15 8 -15 2z"/>
<path d="M4690 3719 c-103 -79 -127 -99 -103 -85 6 3 14 2 18 -4 9 -14 25 -2
19 14 -4 10 9 15 48 19 77 8 83 -1 83 -126 0 -56 -3 -117 -6 -136 -10 -49 -45
-79 -99 -82 -118 -7 -166 9 -100 34 37 14 48 37 17 38 -12 0 -16 3 -9 6 20 8
14 22 -8 16 -14 -4 -20 -1 -18 8 2 8 -3 12 -12 10 -8 -2 -42 -5 -75 -7 -33 -1
-91 -6 -129 -10 -67 -6 -69 -6 -63 15 3 12 2 21 -1 19 -84 -45 -379 -168 -401
-168 -18 0 -51 -62 -51 -95 0 -16 16 -61 35 -100 19 -38 35 -75 35 -81 0 -7
13 -26 29 -43 24 -25 35 -30 55 -25 19 4 26 2 26 -8 0 -8 39 -31 92 -55 l91
-41 51 15 c75 21 211 88 280 137 83 59 184 163 224 229 18 30 47 93 63 139 28
76 31 97 34 238 4 148 0 210 -14 210 -3 -1 -53 -37 -111 -81z m-155 -339 c-3
-5 -10 -10 -16 -10 -5 0 -9 5 -9 10 0 6 7 10 16 10 8 0 12 -4 9 -10z m-25
-120 c0 -5 -5 -10 -11 -10 -5 0 -7 5 -4 10 3 6 8 10 11 10 2 0 4 -4 4 -10z
m-177 -74 c10 -26 59 -51 111 -56 l50 -5 -40 -26 c-41 -28 -101 -38 -141 -24
-17 5 -24 18 -29 51 -3 24 -4 51 0 59 7 19 42 20 49 1z"/>
<path d="M5977 4586 c-12 -13 -27 -38 -34 -55 -9 -26 -9 -34 5 -48 16 -16 16
-16 0 -10 -12 4 -21 0 -28 -13 -14 -25 -13 -81 1 -77 6 1 13 -3 16 -10 3 -7
-3 -9 -18 -6 -21 6 -21 5 -16 -78 4 -46 6 -91 7 -100 0 -9 6 -16 14 -15 8 0
15 -3 15 -9 0 -5 -7 -9 -14 -7 -11 2 -13 -6 -9 -35 6 -40 39 -164 53 -198 38
-92 59 -130 89 -159 32 -32 78 -53 90 -41 3 3 -2 5 -10 5 -9 0 -21 6 -27 14
-10 12 -6 13 27 9 33 -4 44 -1 71 23 20 18 36 45 41 69 13 55 12 162 -1 171
-6 3 -8 17 -5 30 4 15 1 26 -10 32 -12 7 -15 18 -12 36 4 20 0 31 -13 39 -13
8 -19 23 -19 49 0 20 -6 43 -12 50 -7 7 -13 38 -14 68 -1 54 -1 54 12 25 25
-57 16 9 -12 87 -54 150 -132 214 -187 154z m73 -4 c0 -11 -45 -32 -67 -32
-14 0 -14 2 2 20 18 20 65 28 65 12z m-84 -89 c-11 -11 -17 4 -9 23 7 18 8 18
11 1 2 -10 1 -21 -2 -24z m1 -125 c-3 -8 -6 -5 -6 6 -1 11 2 17 5 13 3 -3 4
-12 1 -19z m-40 -70 c-3 -7 -5 -2 -5 12 0 14 2 19 5 13 2 -7 2 -19 0 -25z m37
17 c-6 -16 -24 -21 -24 -7 0 11 11 22 21 22 5 0 6 -7 3 -15z m-24 -75 c0 -11
-4 -20 -10 -20 -5 0 -10 9 -10 20 0 11 5 20 10 20 6 0 10 -9 10 -20z m307
-265 c-4 -8 -11 -15 -17 -15 -7 0 -7 6 0 21 13 23 26 19 17 -6z m-7 -55 c0 -5
-5 -10 -11 -10 -5 0 -7 5 -4 10 3 6 8 10 11 10 2 0 4 -4 4 -10z"/>
<path d="M6180 4301 c0 -6 5 -13 10 -16 6 -3 10 -16 10 -27 0 -12 3 -19 6 -15
9 8 -6 67 -17 67 -5 0 -9 -4 -9 -9z"/>
<path d="M5230 3359 c0 -5 6 -9 14 -9 7 0 19 -7 26 -15 7 -8 17 -15 23 -15 5
0 2 9 -7 19 -19 21 -56 34 -56 20z"/>
<path d="M5215 3280 c-8 -16 -15 -39 -14 -52 0 -18 3 -16 13 12 7 19 20 36 29
38 17 4 23 -18 10 -32 -5 -4 -8 -34 -8 -65 -1 -52 1 -58 18 -53 26 7 34 32 14
44 -22 12 -23 42 -1 34 14 -5 16 -1 10 26 -7 36 -32 78 -46 78 -5 0 -16 -13
-25 -30z"/>
<path d="M5101 3202 c-7 -14 -4 -20 15 -29 26 -12 27 -10 18 25 -8 27 -20 28
-33 4z"/>
<path d="M5185 3090 c-3 -5 -1 -18 4 -27 7 -11 11 -13 11 -5 0 9 7 11 22 7 17
-6 20 -4 15 10 -4 9 -7 19 -7 21 0 9 -39 4 -45 -6z"/>
<path d="M6300 750 c0 -5 5 -10 10 -10 6 0 10 5 10 10 0 6 -4 10 -10 10 -5 0
-10 -4 -10 -10z"/>
<path d="M4655 1770 c3 -5 8 -10 11 -10 2 0 4 5 4 10 0 6 -5 10 -11 10 -5 0
-7 -4 -4 -10z"/>
<path d="M4730 1760 c0 -6 7 -10 15 -10 8 0 15 2 15 4 0 2 -7 6 -15 10 -8 3
-15 1 -15 -4z"/>
<path d="M5450 870 c0 -5 5 -10 10 -10 6 0 10 5 10 10 0 6 -4 10 -10 10 -5 0
-10 -4 -10 -10z"/>
<path d="M5222 523 c-6 -11 -7 -25 -3 -32 6 -9 10 -5 15 14 9 33 1 44 -12 18z"/>
<path d="M8286 5993 c-12 -12 -6 -33 9 -33 8 0 15 6 15 14 0 17 -14 28 -24 19z"/>
<path d="M8320 5987 c0 -22 29 -67 43 -67 5 0 16 -8 23 -17 12 -17 13 -17 14
-1 0 9 -9 20 -20 23 -21 7 -27 30 -11 40 6 3 14 -3 20 -12 10 -17 10 -16 11 3
0 31 -19 45 -42 31 -15 -10 -21 -9 -28 3 -8 13 -10 12 -10 -3z"/>
<path d="M300 5985 c0 -5 5 -17 10 -25 5 -8 10 -10 10 -5 0 6 -5 17 -10 25 -5
8 -10 11 -10 5z"/>
<path d="M8248 5720 l4 -40 44 0 c41 0 56 11 34 25 -5 3 -10 18 -11 33 l-1 27
-12 -27 c-9 -22 -15 -25 -24 -16 -7 7 -12 18 -12 25 0 7 -6 13 -13 13 -9 0
-11 -12 -9 -40z"/>
<path d="M8357 5703 c-12 -11 -8 -23 8 -23 8 0 15 7 15 15 0 16 -12 20 -23 8z"/>
<path d="M8236 5645 c4 -21 15 -48 25 -59 11 -11 19 -26 19 -33 0 -7 5 -13 10
-13 6 0 10 14 10 30 0 17 5 30 10 30 6 0 10 -4 10 -9 0 -5 14 4 30 19 17 15
30 33 30 38 0 6 6 12 13 15 6 2 9 7 5 11 -9 11 -58 -23 -58 -40 0 -14 -12 -18
-38 -15 -7 1 -27 16 -43 34 l-31 32 8 -40z"/>
<path d="M8305 5521 c-3 -5 -1 -12 5 -16 5 -3 10 1 10 9 0 18 -6 21 -15 7z"/>
<path d="M615 5470 c3 -5 8 -10 11 -10 2 0 4 5 4 10 0 6 -5 10 -11 10 -5 0 -7
-4 -4 -10z"/>
<path d="M8330 5425 c0 -9 7 -18 15 -21 8 -4 15 -15 15 -25 0 -12 7 -19 20
-19 17 0 20 7 20 42 0 39 -1 40 -15 22 -13 -17 -14 -17 -15 -1 0 21 -40 24
-40 2z"/>
<path d="M8338 5275 c-30 -40 -17 -75 29 -75 21 0 22 3 13 20 -8 14 -8 26 0
40 8 16 8 20 -4 20 -8 0 -16 4 -18 9 -1 5 -11 -1 -20 -14z"/>
<path d="M8370 5177 c0 -3 7 -20 15 -38 l15 -34 -2 34 c-2 19 -9 36 -15 39 -7
2 -13 2 -13 -1z"/>
<path d="M8391 5034 c0 -11 3 -14 6 -6 3 7 2 16 -1 19 -3 4 -6 -2 -5 -13z"/>
<path d="M8312 4990 c0 -19 2 -27 5 -17 2 9 2 25 0 35 -3 9 -5 1 -5 -18z"/>
<path d="M8371 4974 c0 -11 3 -14 6 -6 3 7 2 16 -1 19 -3 4 -6 -2 -5 -13z"/>
<path d="M8320 4939 c0 -5 5 -7 10 -4 6 3 10 8 10 11 0 2 -4 4 -10 4 -5 0 -10
-5 -10 -11z"/>
<path d="M8341 4913 c-10 -26 -10 -27 4 -9 8 11 15 23 15 28 0 15 -7 8 -19
-19z"/>
<path d="M8383 4735 c0 -8 4 -15 9 -15 4 0 8 7 8 15 0 8 -4 15 -8 15 -5 0 -9
-7 -9 -15z"/>
<path d="M8340 4730 c0 -6 7 -10 15 -10 8 0 15 2 15 4 0 2 -7 6 -15 10 -8 3
-15 1 -15 -4z"/>
<path d="M8310 4683 c0 -12 5 -25 10 -28 13 -8 13 15 0 35 -8 12 -10 11 -10
-7z"/>
<path d="M8335 4570 c-3 -5 1 -10 10 -10 9 0 13 5 10 10 -3 6 -8 10 -10 10 -2
0 -7 -4 -10 -10z"/>
<path d="M8256 4545 c-3 -9 0 -15 9 -15 16 0 20 16 6 24 -5 3 -11 -1 -15 -9z"/>
<path d="M1290 4290 c0 -5 5 -10 11 -10 5 0 7 5 4 10 -3 6 -8 10 -11 10 -2 0
-4 -4 -4 -10z"/>
<path d="M8378 3908 c17 -17 15 -57 -3 -64 -17 -7 -21 -44 -5 -44 6 0 10 9 10
20 0 11 5 20 10 20 11 0 13 39 4 64 -3 9 -11 16 -17 16 -7 0 -7 -4 1 -12z"/>
<path d="M8306 3865 c-9 -14 -13 -25 -9 -25 10 0 36 40 30 46 -2 3 -12 -7 -21
-21z"/>
<path d="M8355 3870 c3 -5 8 -10 11 -10 2 0 4 5 4 10 0 6 -5 10 -11 10 -5 0
-7 -4 -4 -10z"/>
<path d="M2150 3825 c0 -8 4 -15 10 -15 5 0 7 7 4 15 -4 8 -8 15 -10 15 -2 0
-4 -7 -4 -15z"/>
<path d="M8321 3821 c-1 -23 -2 -24 -14 -6 -8 10 -19 15 -25 11 -17 -10 -15
-26 3 -20 8 4 15 1 15 -5 0 -7 -7 -14 -15 -17 -27 -11 -16 -21 20 -20 41 1 40
0 27 46 -8 29 -10 30 -11 11z"/>
<path d="M306 3764 c-3 -9 -2 -23 2 -31 7 -11 9 -6 10 16 1 34 -3 39 -12 15z"/>
<path d="M8224 3756 c-12 -12 -64 -79 -115 -151 -136 -187 -142 -196 -137
-201 5 -4 45 11 138 54 63 29 117 42 176 42 28 0 66 3 83 6 l32 7 -3 105 -3
105 -45 13 c-25 8 -55 14 -67 14 -12 0 -26 6 -30 14 -6 10 -12 9 -29 -8z"/>
<path d="M8358 3753 c7 -3 16 -2 19 1 4 3 -2 6 -13 5 -11 0 -14 -3 -6 -6z"/>
<path d="M2944 3330 c4 -14 16 -44 27 -67 10 -24 19 -49 19 -56 0 -7 9 -29 20
-50 11 -20 16 -37 10 -37 -5 0 -10 -4 -10 -10 0 -5 6 -7 13 -4 9 3 23 -16 42
-58 44 -101 113 -196 169 -234 28 -19 54 -34 58 -34 14 0 30 83 23 118 -7 39
-59 147 -74 157 -6 3 -19 26 -30 50 -31 71 -81 125 -137 150 -28 13 -71 40
-94 61 -39 36 -42 37 -36 14z"/>
<path d="M7690 2775 c0 -8 5 -15 10 -15 6 0 10 7 10 15 0 8 -4 15 -10 15 -5 0
-10 -7 -10 -15z"/>
<path d="M3075 2390 c-3 -5 1 -10 9 -10 8 0 18 5 21 10 3 6 -1 10 -9 10 -8 0
-18 -4 -21 -10z"/>
<path d="M3035 2380 c-3 -5 -1 -10 4 -10 6 0 11 5 11 10 0 6 -2 10 -4 10 -3 0
-8 -4 -11 -10z"/>
<path d="M2660 2280 c0 -5 4 -10 9 -10 6 0 13 5 16 10 3 6 -1 10 -9 10 -9 0
-16 -4 -16 -10z"/>
<path d="M2550 2246 c0 -8 4 -17 9 -20 5 -4 7 3 4 14 -6 23 -13 26 -13 6z"/>
<path d="M2590 2240 c0 -5 5 -10 10 -10 6 0 10 5 10 10 0 6 -4 10 -10 10 -5 0
-10 -4 -10 -10z"/>
<path d="M2655 2200 c-4 -6 -17 -15 -29 -20 -14 -6 -16 -9 -5 -9 19 -1 56 25
47 34 -3 3 -9 1 -13 -5z"/>
<path d="M2251 1993 c8 -10 19 -21 26 -25 6 -5 9 -18 6 -30 -3 -14 -1 -18 4
-12 19 25 61 24 109 -1 63 -34 74 -44 74 -69 0 -17 2 -18 10 -6 5 8 10 11 11
5 0 -5 2 -21 4 -35 2 -14 1 -19 -1 -12 -3 6 -9 10 -12 8 -4 -2 -13 2 -20 10
-7 8 -10 14 -7 14 2 0 -4 11 -16 24 -25 28 -82 31 -87 4 -2 -11 3 -18 12 -18
9 0 16 -4 16 -10 0 -5 -4 -10 -10 -10 -5 0 -10 -7 -10 -15 0 -9 10 -16 28 -17
15 0 33 -2 40 -2 8 -1 18 -9 23 -18 8 -14 7 -16 -5 -12 -32 12 -32 -60 0 -155
12 -35 12 -46 2 -52 -9 -6 -5 -15 15 -33 32 -30 34 -36 7 -29 -14 4 -20 0 -20
-11 0 -9 6 -16 13 -16 14 -1 91 -149 82 -158 -4 -4 -16 5 -27 21 -11 15 -27
27 -37 27 -9 0 -22 12 -29 28 -11 25 -11 24 -7 -18 6 -61 19 -114 47 -187 28
-74 36 -84 31 -40 l-4 32 17 -32 c9 -18 20 -30 25 -27 5 3 9 -4 9 -16 0 -12 4
-19 8 -16 14 9 4 192 -14 261 l-6 20 15 -20 c8 -11 17 -37 21 -57 4 -20 16
-58 28 -84 23 -53 21 -143 -3 -182 -14 -22 -10 -49 31 -214 10 -40 9 -52 -5
-82 -10 -20 -14 -44 -10 -53 6 -16 10 -14 31 12 32 39 31 79 -5 189 -23 71
-27 95 -19 125 22 89 27 144 17 164 -8 14 -8 40 1 93 15 88 7 167 -26 250 -13
33 -24 68 -24 77 0 9 -4 17 -10 17 -5 0 -10 22 -10 49 0 31 -5 53 -15 61 -8 7
-15 9 -15 5 0 -4 -6 -3 -13 3 -8 7 -14 39 -15 88 -1 62 2 80 16 90 9 8 12 14
5 14 -6 0 -9 9 -6 20 7 28 -13 25 -22 -2 -5 -17 -8 -19 -11 -8 -5 17 -121 67
-144 62 -44 -9 -57 -8 -82 9 -34 25 -56 25 -37 2z m213 -279 c23 -9 20 -23 -4
-17 -11 3 -20 9 -20 14 0 11 3 11 24 3z m53 -97 c30 -39 53 -87 53 -107 0 -12
-84 79 -99 107 -30 57 3 57 46 0z m93 -123 c6 -17 10 -41 9 -55 -1 -38 -37 69
-37 111 l0 35 9 -30 c5 -16 14 -44 19 -61z m-71 -24 c0 -9 -6 -4 -14 10 -19
33 -19 49 0 24 8 -10 14 -26 14 -34z m92 -83 c6 -77 5 -117 -2 -128 -9 -15
-11 -12 -28 56 -16 60 -14 81 9 82 11 1 20 -4 21 -10z m-112 -101 c14 -16 7
-66 -8 -66 -11 0 -41 62 -41 84 0 13 4 15 18 7 10 -5 24 -17 31 -25z"/>
<path d="M2490 1976 c0 -13 6 -15 28 -10 33 8 41 14 19 14 -8 0 -22 3 -31 6
-11 4 -16 1 -16 -10z"/>
<path d="M6845 1840 c-3 -5 1 -10 10 -10 9 0 13 5 10 10 -3 6 -8 10 -10 10 -2
0 -7 -4 -10 -10z"/>
<path d="M6796 1665 c4 -8 8 -15 10 -15 2 0 4 7 4 15 0 8 -4 15 -10 15 -5 0
-7 -7 -4 -15z"/>
<path d="M6661 1414 c0 -11 3 -14 6 -6 3 7 2 16 -1 19 -3 4 -6 -2 -5 -13z"/>
<path d="M3436 783 c-4 -5 -18 -8 -29 -8 -12 0 -21 -6 -19 -12 3 -17 -16 -16
-48 1 -21 11 -30 10 -54 -2 -28 -13 -146 -130 -146 -144 0 -8 -50 -32 -104
-48 -37 -12 -195 -14 -251 -4 -14 2 -35 -2 -46 -10 -11 -7 -29 -11 -40 -9 -15
4 -22 0 -26 -17 l-6 -22 -13 23 c-7 13 -13 32 -14 42 0 31 -26 18 -82 -40 -95
-100 -95 -102 -21 -281 44 -107 45 -114 33 -151 -9 -27 -10 -48 -3 -67 9 -26
14 -29 60 -32 49 -3 52 -1 67 29 13 26 14 34 4 41 -7 4 -19 6 -25 3 -7 -2 -13
2 -13 10 0 8 17 19 43 25 23 6 83 23 132 37 246 71 265 74 265 39 0 -8 14 -53
31 -100 l31 -86 364 0 364 0 0 25 c0 34 -34 100 -62 119 -12 9 -18 16 -13 16
6 0 4 4 -3 8 -9 7 -6 15 13 36 14 15 25 37 25 50 0 28 -91 216 -114 235 -15
12 -25 12 -67 2 -28 -7 -52 -12 -53 -10 -4 5 -44 98 -94 222 -29 71 -39 87
-57 87 -12 0 -25 -3 -29 -7z m-916 -383 c0 -5 -2 -10 -4 -10 -3 0 -8 5 -11 10
-3 6 -1 10 4 10 6 0 11 -4 11 -10z m1167 -92 c-3 -8 -6 -5 -6 6 -1 11 2 17 5
13 3 -3 4 -12 1 -19z m-247 -164 c0 -4 -8 -13 -17 -21 -17 -14 -17 -14 -1 -9
10 3 20 1 23 -5 4 -5 2 -8 -3 -7 -6 2 -10 -1 -10 -5 0 -11 -53 -67 -64 -67 -7
0 -28 42 -43 89 -6 20 -4 21 25 16 17 -3 39 -1 48 4 19 12 42 14 42 5z"/>
<path d="M6735 700 c-3 -5 -1 -10 4 -10 6 0 11 5 11 10 0 6 -2 10 -4 10 -3 0
-8 -4 -11 -10z"/>
<path d="M6774 669 c-3 -5 -2 -14 2 -20 4 -7 -3 -10 -17 -9 -45 4 -69 0 -69
-11 0 -6 6 -9 14 -6 8 3 17 1 19 -6 3 -9 11 -9 35 0 18 6 34 8 37 3 2 -4 17
-5 32 -3 56 9 58 13 22 36 -37 23 -66 29 -75 16z"/>
<path d="M1830 570 c-36 -21 -64 -43 -63 -49 3 -10 -6 -13 -60 -25 -15 -4 -25
-11 -22 -16 3 -6 -1 -10 -10 -10 -15 0 -143 -66 -155 -80 -3 -3 -16 -11 -30
-18 -67 -35 -90 -49 -112 -68 -13 -11 -30 -18 -37 -16 -8 3 -11 0 -7 -6 3 -6
2 -13 -4 -17 -6 -4 -8 -11 -5 -16 4 -5 1 -9 -5 -9 -7 0 -10 7 -6 15 3 8 3 15
0 15 -7 0 -67 -33 -74 -41 -3 -3 -30 -19 -60 -35 -30 -16 -57 -31 -60 -34 -3
-4 -23 -15 -45 -27 -87 -45 -110 -58 -113 -65 -2 -5 -10 -8 -18 -8 -8 0 -14
-4 -14 -9 0 -5 -13 -12 -30 -16 -34 -7 -39 -21 -12 -29 21 -7 74 -2 91 8 7 4
19 2 27 -5 13 -10 17 -10 25 2 6 9 11 11 17 3 10 -15 520 -18 538 -3 11 9 14
8 14 0 0 -8 21 -11 61 -10 l61 2 21 46 c13 27 21 64 20 90 -1 30 1 40 7 31 11
-17 21 7 41 93 8 31 17 57 20 57 4 0 10 11 13 24 3 13 9 32 13 42 4 12 3 15
-5 10 -7 -4 -12 -2 -12 3 0 6 7 11 15 11 9 0 15 9 15 24 0 14 4 27 9 30 5 4
12 24 16 46 4 22 11 40 17 40 6 0 8 10 4 24 -4 15 -1 26 7 29 6 3 3 5 -8 5
-11 0 -49 -17 -85 -38z m-10 -44 c0 -11 -19 -15 -25 -6 -3 5 1 10 9 10 9 0 16
-2 16 -4z m-537 -293 c-7 -19 -32 -42 -46 -43 -5 0 -7 6 -4 13 2 6 9 11 15 10
6 -2 16 6 22 17 13 25 22 26 13 3z"/>
<path d="M2362 347 c-12 -13 -22 -30 -22 -38 -1 -19 -23 -46 -35 -43 -5 2 -28
-22 -50 -53 -22 -31 -57 -76 -79 -100 -24 -27 -39 -54 -39 -71 0 -15 -2 -21
-4 -14 -3 6 -9 12 -14 12 -11 0 -12 -30 -1 -30 4 -1 72 -2 151 -4 l144 -3 -8
171 c-4 94 -10 177 -14 184 -5 9 -13 6 -29 -11z m-182 -308 c0 -5 -4 -9 -10
-9 -5 0 -10 7 -10 16 0 8 5 12 10 9 6 -3 10 -10 10 -16z"/>
<path d="M7630 248 c0 -5 -7 -8 -15 -8 -10 0 -15 -10 -15 -32 l1 -33 18 23
c13 14 30 22 51 22 29 0 31 2 19 17 -8 10 -9 14 -2 10 6 -4 14 -3 17 2 3 4
-12 8 -34 7 -22 0 -40 -4 -40 -8z"/>
<path d="M3060 180 c0 -5 5 -10 11 -10 5 0 7 5 4 10 -3 6 -8 10 -11 10 -2 0
-4 -4 -4 -10z"/>
<path d="M3074 136 c-7 -29 1 -46 22 -46 8 0 14 -4 14 -10 0 -5 -7 -7 -16 -3
-14 5 -14 2 0 -32 9 -21 16 -38 16 -40 0 -1 7 -2 16 -2 11 0 14 6 9 21 -3 12
-8 34 -12 50 -3 16 -14 31 -24 33 -14 4 -17 11 -13 29 3 13 4 24 0 24 -3 0 -8
-11 -12 -24z"/>
<path d="M2970 117 c-30 -10 -93 -29 -140 -43 -114 -33 -109 -30 -103 -53 5
-20 12 -21 185 -21 168 0 180 1 173 18 -4 9 -14 35 -22 57 -22 60 -30 64 -93
42z"/>
<path d="M3884 98 c9 -15 16 -38 16 -51 0 -14 6 -29 13 -35 9 -8 52 -9 85 -3
2 1 -3 8 -12 16 -8 8 -22 12 -30 9 -12 -5 -15 -2 -9 12 5 14 3 16 -11 11 -14
-5 -17 -3 -12 8 3 8 1 15 -5 15 -6 0 -20 10 -31 23 l-20 22 16 -27z"/>
<path d="M7735 40 c3 -5 10 -10 16 -10 5 0 9 5 9 10 0 6 -7 10 -16 10 -8 0
-12 -4 -9 -10z"/>
</g>
</svg>
